<svg xmlns="http://www.w3.org/2000/svg" viewBox="0 0 1588.84 158.52"><defs><style>.cls-1{isolation:isolate;}.cls-2{fill:#d0d5e6;}</style></defs><title>A little about me New</title><g id="Layer_2" data-name="Layer 2"><g id="Layer_1-2" data-name="Layer 1"><g class="cls-1"><path class="cls-2" d="M47.16,172.73H4.55l48-145.46h54l48,145.46H111.93L80.11,67.33H79Zm-8-57.39h80.12v29.55H39.2Z" transform="translate(-4.55 -16.48)"/><path class="cls-2" d="M237.21,27.27V172.73H198V27.27Z" transform="translate(-4.55 -16.48)"/><path class="cls-2" d="M251.69,172.73V63.64h39.2V172.73Zm19.6-120.46A19.37,19.37,0,0,1,257.66,47a16.9,16.9,0,0,1,0-25.29,20.37,20.37,0,0,1,27.3,0A17,17,0,0,1,285,47,19.34,19.34,0,0,1,271.29,52.27Z" transform="translate(-4.55 -16.48)"/><path class="cls-2" d="M370.44,63.64V92H298.56V63.64Zm-58-26.14h39.21V137.64a8.17,8.17,0,0,0,.78,3.8,4.85,4.85,0,0,0,2.41,2.27,10.1,10.1,0,0,0,4.19.75,23.57,23.57,0,0,0,4.16-.43c1.58-.28,2.75-.52,3.51-.71l5.68,27.56q-2.62.78-7.49,1.92a68.06,68.06,0,0,1-11.54,1.49q-13.5.71-22.66-2.81A26.65,26.65,0,0,1,317,160.37q-4.62-7.6-4.48-19Z" transform="translate(-4.55 -16.48)"/><path class="cls-2" d="M446,63.64V92H374.12V63.64ZM388,37.5h39.21V137.64a8.29,8.29,0,0,0,.78,3.8,4.85,4.85,0,0,0,2.41,2.27,10.1,10.1,0,0,0,4.19.75,23.48,23.48,0,0,0,4.16-.43c1.59-.28,2.76-.52,3.51-.71L448,170.88c-1.76.52-4.25,1.16-7.5,1.92A68.06,68.06,0,0,1,429,174.29q-13.49.71-22.65-2.81a26.67,26.67,0,0,1-13.78-11.11q-4.62-7.6-4.48-19Z" transform="translate(-4.55 -16.48)"/><path class="cls-2" d="M498,27.27V172.73H458.77V27.27Z" transform="translate(-4.55 -16.48)"/><path class="cls-2" d="M564.74,174.71q-17.47,0-30.08-6.71a46.18,46.18,0,0,1-19.39-19.31q-6.78-12.62-6.78-30.23,0-16.89,6.81-29.54a48.73,48.73,0,0,1,19.25-19.67q12.44-7,29.33-7a62.11,62.11,0,0,1,22.38,3.84,47,47,0,0,1,17.11,11.12,49.41,49.41,0,0,1,10.94,17.64,67,67,0,0,1,3.84,23.37v9.09H520.7V105.68h61.36a15.4,15.4,0,0,0-2.37-8.27,16.08,16.08,0,0,0-6.18-5.61,18.65,18.65,0,0,0-8.77-2,19,19,0,0,0-8.74,2,16.53,16.53,0,0,0-6.36,5.57,15.54,15.54,0,0,0-2.52,8.31V129a19.64,19.64,0,0,0,2.2,9.37,15.93,15.93,0,0,0,6.33,6.46,19.68,19.68,0,0,0,9.94,2.35A23.05,23.05,0,0,0,573,146a16.32,16.32,0,0,0,5.79-3.3,13,13,0,0,0,3.55-5.22h35.8a40.68,40.68,0,0,1-8.74,19.71,44.89,44.89,0,0,1-18.22,12.92Q579.87,174.72,564.74,174.71Z" transform="translate(-4.55 -16.48)"/><path class="cls-2" d="M693.42,174.43A46.32,46.32,0,0,1,675,171a27.52,27.52,0,0,1-12.54-10.48q-4.55-7-4.54-17.9a35.17,35.17,0,0,1,3.05-15.3,27.66,27.66,0,0,1,8.52-10.41,40.23,40.23,0,0,1,12.75-6.18A76.86,76.86,0,0,1,698,108a145.28,145.28,0,0,0,14.74-1.74c3.72-.68,6.4-1.65,8.06-2.91a6,6,0,0,0,2.49-5V98A7.46,7.46,0,0,0,720,91.48a14.32,14.32,0,0,0-8.38-2.28,15.68,15.68,0,0,0-9.13,2.45,10.42,10.42,0,0,0-4.22,7.5H662.17a37.1,37.1,0,0,1,6.36-18.36q5.64-8.42,16.51-13.5t27.13-5.08a74.62,74.62,0,0,1,21,2.74A49.85,49.85,0,0,1,749,72.55a34,34,0,0,1,10,11.36A29.73,29.73,0,0,1,762.45,98v74.72H725.81V157.39H725a31.79,31.79,0,0,1-7.92,9.87,29.72,29.72,0,0,1-10.58,5.47A47.29,47.29,0,0,1,693.42,174.43Zm12.78-24.72a19.61,19.61,0,0,0,8.42-1.84,16.22,16.22,0,0,0,6.43-5.33,14.19,14.19,0,0,0,2.48-8.45V125c-1,.43-2.14.83-3.3,1.21s-2.39.73-3.69,1.06-2.68.64-4.12.93-2.95.54-4.51.78a22.23,22.23,0,0,0-7.42,2.31,11.07,11.07,0,0,0-4.27,3.9,9.86,9.86,0,0,0-1.38,5.15,8.22,8.22,0,0,0,3.19,7A13.21,13.21,0,0,0,706.2,149.71Z" transform="translate(-4.55 -16.48)"/><path class="cls-2" d="M775.23,172.73V27.27h39.21v55.4H815a33.69,33.69,0,0,1,6.25-10.19A30.48,30.48,0,0,1,831.48,65a33.74,33.74,0,0,1,14.21-2.81A39.88,39.88,0,0,1,866.25,68q9.76,5.75,15.91,18.11t6.14,32.1q0,18.9-5.86,31.32T866.82,168a39.62,39.62,0,0,1-21.42,6.11,35,35,0,0,1-13.67-2.52,30.5,30.5,0,0,1-10.23-6.89,31.47,31.47,0,0,1-6.5-9.91h-.85v17.9Zm38.35-54.55a40.3,40.3,0,0,0,2.1,13.74,19.93,19.93,0,0,0,6,9,15.19,15.19,0,0,0,18.46.07,19.32,19.32,0,0,0,5.83-8.87,42.51,42.51,0,0,0,2-13.89,42.45,42.45,0,0,0-2-13.88,19.36,19.36,0,0,0-5.83-8.88,14.11,14.11,0,0,0-9.2-3.09,14.37,14.37,0,0,0-9.26,3.09,19.47,19.47,0,0,0-6,8.88A40.79,40.79,0,0,0,813.58,118.18Z" transform="translate(-4.55 -16.48)"/><path class="cls-2" d="M951.93,174.71q-17.74,0-30.39-7.06a48,48,0,0,1-19.39-19.75q-6.75-12.68-6.75-29.44T902.15,89a48,48,0,0,1,19.39-19.75q12.63-7.07,30.39-7.07t30.4,7.07A48,48,0,0,1,1001.72,89q6.75,12.68,6.75,29.43t-6.75,29.44a48,48,0,0,1-19.39,19.75Q969.69,174.72,951.93,174.71Zm.29-29a12.23,12.23,0,0,0,8.59-3.34,21.59,21.59,0,0,0,5.61-9.52,48.09,48.09,0,0,0,2-14.7,48,48,0,0,0-2-14.74A21.61,21.61,0,0,0,960.81,94a12.27,12.27,0,0,0-8.59-3.34,13.15,13.15,0,0,0-9,3.34,21,21,0,0,0-5.75,9.48,48,48,0,0,0-2,14.74,48.09,48.09,0,0,0,2,14.7,20.94,20.94,0,0,0,5.75,9.52A13.1,13.1,0,0,0,952.22,145.74Z" transform="translate(-4.55 -16.48)"/><path class="cls-2" d="M1089.72,125V63.64h39.2V172.73H1091.7V152h-1.13a30.85,30.85,0,0,1-12.43,16.3q-8.88,5.85-21.09,5.86a37.4,37.4,0,0,1-20-5.26,35.71,35.71,0,0,1-13.28-14.49,46.32,46.32,0,0,1-4.79-21.16V63.64h39.2V125q.08,8.1,4.16,12.71t11.47,4.62a16.49,16.49,0,0,0,8.48-2.1,14,14,0,0,0,5.54-6A19.77,19.77,0,0,0,1089.72,125Z" transform="translate(-4.55 -16.48)"/><path class="cls-2" d="M1208.46,63.64V92h-71.87V63.64Zm-58-26.14h39.2V137.64a8.29,8.29,0,0,0,.78,3.8,4.87,4.87,0,0,0,2.42,2.27,10.07,10.07,0,0,0,4.19.75,23.38,23.38,0,0,0,4.15-.43c1.59-.28,2.76-.52,3.52-.71l5.68,27.56q-2.62.78-7.49,1.92a68.2,68.2,0,0,1-11.54,1.49q-13.5.71-22.66-2.81A26.67,26.67,0,0,1,1155,160.37q-4.62-7.6-4.47-19Z" transform="translate(-4.55 -16.48)"/><path class="cls-2" d="M1253.34,172.73V63.64h37.21V84.37h1.14a31.87,31.87,0,0,1,11.65-16.19,35.25,35.25,0,0,1,39.42.11,24.32,24.32,0,0,1,10,16.08h1.14a27.85,27.85,0,0,1,11.79-16.08,37,37,0,0,1,21.16-6.08q15.69,0,25.46,10.09t9.77,26.85v73.58h-39.21V109.09q0-7.17-3.62-11.26a12.36,12.36,0,0,0-9.73-4.08,12,12,0,0,0-9.55,4.08q-3.51,4.1-3.52,11.26v63.64H1319V109.09q0-7.17-3.62-11.26a12.36,12.36,0,0,0-9.73-4.08,12.73,12.73,0,0,0-7,1.85,12.12,12.12,0,0,0-4.51,5.29,19.41,19.41,0,0,0-1.6,8.2v63.64Z" transform="translate(-4.55 -16.48)"/><path class="cls-2" d="M1488.28,174.71q-17.47,0-30.08-6.71a46.23,46.23,0,0,1-19.39-19.31q-6.78-12.62-6.78-30.23,0-16.89,6.82-29.54a48.65,48.65,0,0,1,19.24-19.67q12.44-7,29.34-7a62.06,62.06,0,0,1,22.37,3.84,47.08,47.08,0,0,1,17.12,11.12,49.38,49.38,0,0,1,10.93,17.64,67,67,0,0,1,3.84,23.37v9.09h-97.45V105.68h61.37a15.41,15.41,0,0,0-2.38-8.27,16.08,16.08,0,0,0-6.18-5.61,18.62,18.62,0,0,0-8.77-2,19,19,0,0,0-8.74,2,16.43,16.43,0,0,0-6.35,5.57,15.37,15.37,0,0,0-2.52,8.31V129a19.52,19.52,0,0,0,2.2,9.37,15.85,15.85,0,0,0,6.32,6.46,19.7,19.7,0,0,0,9.94,2.35,23.05,23.05,0,0,0,7.42-1.14,16.32,16.32,0,0,0,5.79-3.3,13,13,0,0,0,3.55-5.22h35.8a40.59,40.59,0,0,1-8.74,19.71,44.82,44.82,0,0,1-18.22,12.92Q1503.41,174.72,1488.28,174.71Z" transform="translate(-4.55 -16.48)"/><path class="cls-2" d="M1573.5,175a19.35,19.35,0,0,1-14.1-5.79,18.89,18.89,0,0,1-5.79-14.1,18.52,18.52,0,0,1,5.79-13.85,19.81,19.81,0,0,1,27.91,0,18.73,18.73,0,0,1,6.08,13.85,19.12,19.12,0,0,1-2.88,10,21.37,21.37,0,0,1-7.28,7.18A18.71,18.71,0,0,1,1573.5,175Z" transform="translate(-4.55 -16.48)"/></g></g></g></svg>