<svg xmlns="http://www.w3.org/2000/svg" viewBox="0 0 1138.88 197.16"><defs><style>.cls-1{isolation:isolate;}.cls-2{fill:#d0d5e6;}</style></defs><title>Exploration New</title><g id="Layer_2" data-name="Layer 2"><g id="Layer_1-2" data-name="Layer 1"><g class="cls-1"><g class="cls-1"><path class="cls-2" d="M9.38,172.73V27.27H114.2V59.09H48.86v25h60v31.82H48.86v25h65.06v31.82Z" transform="translate(-9.38 -16.48)"/><path class="cls-2" d="M162.78,63.64l15.91,33.8,16.76-33.8h38.92l-29.26,54.54,30.68,54.55H197.15l-18.46-34.66-17.9,34.66h-39.2l31-54.55-29-54.54Z" transform="translate(-9.38 -16.48)"/><path class="cls-2" d="M242.89,213.64v-150h38.92v19h.85a33.49,33.49,0,0,1,6.25-10.19A30.48,30.48,0,0,1,299.14,65a33.72,33.72,0,0,1,14.2-2.81A39.91,39.91,0,0,1,333.91,68q9.76,5.75,15.9,18.11t6.15,32.1q0,18.9-5.86,31.32T334.47,168a39.59,39.59,0,0,1-21.41,6.11,35,35,0,0,1-13.67-2.52,30.5,30.5,0,0,1-10.23-6.89,31.3,31.3,0,0,1-6.5-9.91h-.57v58.81Zm38.35-95.46a40.3,40.3,0,0,0,2.1,13.74,19.91,19.91,0,0,0,6,9,15.21,15.21,0,0,0,18.47.07,19.31,19.31,0,0,0,5.82-8.87,42.23,42.23,0,0,0,2-13.89,42.17,42.17,0,0,0-2-13.88,19.34,19.34,0,0,0-5.82-8.88,14.11,14.11,0,0,0-9.2-3.09,14.4,14.4,0,0,0-9.27,3.09,19.46,19.46,0,0,0-6,8.88A40.79,40.79,0,0,0,281.24,118.18Z" transform="translate(-9.38 -16.48)"/><path class="cls-2" d="M406.24,27.27V172.73H367V27.27Z" transform="translate(-9.38 -16.48)"/><path class="cls-2" d="M473.28,174.71q-17.76,0-30.4-7.06a48,48,0,0,1-19.39-19.75q-6.75-12.68-6.74-29.44T423.49,89a48,48,0,0,1,19.39-19.75q12.64-7.07,30.4-7.07t30.4,7.07A48.09,48.09,0,0,1,523.07,89q6.73,12.68,6.74,29.43t-6.74,29.44a48.09,48.09,0,0,1-19.39,19.75Q491,174.72,473.28,174.71Zm.28-29a12.25,12.25,0,0,0,8.6-3.34,21.78,21.78,0,0,0,5.61-9.52,48.4,48.4,0,0,0,2-14.7,48.35,48.35,0,0,0-2-14.74A21.8,21.8,0,0,0,482.16,94a12.29,12.29,0,0,0-8.6-3.34,13.17,13.17,0,0,0-9,3.34,21,21,0,0,0-5.75,9.48,48,48,0,0,0-2,14.74,48.09,48.09,0,0,0,2,14.7,21,21,0,0,0,5.75,9.52A13.12,13.12,0,0,0,473.56,145.74Z" transform="translate(-9.38 -16.48)"/><path class="cls-2" d="M540.32,172.73V63.64h38.07V84.37h1.14q3-11.5,9.48-16.83a23.3,23.3,0,0,1,15.23-5.33,33.14,33.14,0,0,1,5.08.4,34.83,34.83,0,0,1,4.87,1.1V97.16A35.42,35.42,0,0,0,607,95.67a64.9,64.9,0,0,0-7.31-.5,20.62,20.62,0,0,0-10.34,2.59,18.88,18.88,0,0,0-7.21,7.25,21.79,21.79,0,0,0-2.62,10.9v56.82Z" transform="translate(-9.38 -16.48)"/><path class="cls-2" d="M652,174.43A46.24,46.24,0,0,1,633.54,171,27.52,27.52,0,0,1,621,160.51q-4.54-7-4.55-17.9a35,35,0,0,1,3.06-15.3A27.48,27.48,0,0,1,628,116.9a40.13,40.13,0,0,1,12.75-6.18A76.74,76.74,0,0,1,656.51,108a145.28,145.28,0,0,0,14.74-1.74q5.57-1,8.06-2.91a6,6,0,0,0,2.48-5V98a7.45,7.45,0,0,0-3.26-6.53,14.32,14.32,0,0,0-8.38-2.28A15.66,15.66,0,0,0,661,91.65a10.46,10.46,0,0,0-4.23,7.5H620.71a37.3,37.3,0,0,1,6.36-18.36q5.65-8.42,16.51-13.5t27.13-5.08a74.64,74.64,0,0,1,21,2.74,49.85,49.85,0,0,1,15.84,7.6,34,34,0,0,1,10,11.36A29.62,29.62,0,0,1,721,98v74.72H684.35V157.39h-.85a31.79,31.79,0,0,1-7.92,9.87A29.72,29.72,0,0,1,665,172.73,47.37,47.37,0,0,1,652,174.43Zm12.79-24.72a19.64,19.64,0,0,0,8.42-1.84,16.19,16.19,0,0,0,6.42-5.33,14.13,14.13,0,0,0,2.49-8.45V125c-1,.43-2.14.83-3.3,1.21s-2.4.73-3.7,1.06-2.67.64-4.12.93-2.94.54-4.51.78a22.31,22.31,0,0,0-7.42,2.31,11,11,0,0,0-4.26,3.9,9.86,9.86,0,0,0-1.38,5.15,8.19,8.19,0,0,0,3.19,7A13.17,13.17,0,0,0,664.75,149.71Z" transform="translate(-9.38 -16.48)"/><path class="cls-2" d="M799.4,63.64V92H727.53V63.64ZM741.45,37.5h39.2V137.64a8.16,8.16,0,0,0,.79,3.8,4.85,4.85,0,0,0,2.41,2.27,10.1,10.1,0,0,0,4.19.75,23.57,23.57,0,0,0,4.16-.43c1.58-.28,2.75-.52,3.51-.71l5.68,27.56q-2.62.78-7.49,1.92a68.06,68.06,0,0,1-11.54,1.49q-13.5.71-22.66-2.81a26.67,26.67,0,0,1-13.78-11.11q-4.6-7.6-4.47-19Z" transform="translate(-9.38 -16.48)"/><path class="cls-2" d="M809.91,172.73V63.64h39.2V172.73Zm19.6-120.46A19.37,19.37,0,0,1,815.88,47a16.9,16.9,0,0,1,0-25.29,20.37,20.37,0,0,1,27.3,0,17,17,0,0,1,0,25.29A19.34,19.34,0,0,1,829.51,52.27Z" transform="translate(-9.38 -16.48)"/><path class="cls-2" d="M916.16,174.71q-17.76,0-30.4-7.06a48,48,0,0,1-19.39-19.75q-6.75-12.68-6.75-29.44T866.37,89a48,48,0,0,1,19.39-19.75q12.63-7.07,30.4-7.07t30.39,7.07A48,48,0,0,1,965.94,89q6.75,12.68,6.75,29.43t-6.75,29.44a48,48,0,0,1-19.39,19.75Q933.91,174.72,916.16,174.71Zm.28-29A12.23,12.23,0,0,0,925,142.4a21.59,21.59,0,0,0,5.61-9.52,48.09,48.09,0,0,0,2-14.7,48,48,0,0,0-2-14.74A21.61,21.61,0,0,0,925,94a12.27,12.27,0,0,0-8.59-3.34,13.15,13.15,0,0,0-9,3.34,21,21,0,0,0-5.75,9.48,48,48,0,0,0-2,14.74,48.09,48.09,0,0,0,2,14.7,20.94,20.94,0,0,0,5.75,9.52A13.1,13.1,0,0,0,916.44,145.74Z" transform="translate(-9.38 -16.48)"/><path class="cls-2" d="M1022.4,111.36v61.37H983.2V63.64h37.21V84.37h1.14a30.87,30.87,0,0,1,12.54-16.26,40.57,40.57,0,0,1,41.12-.6A36,36,0,0,1,1088.49,82a45,45,0,0,1,4.65,21.09v69.61h-39.2V111.36q.06-8.1-4.09-12.71T1038.31,94a16.33,16.33,0,0,0-8.41,2.1,13.83,13.83,0,0,0-5.51,6A21.41,21.41,0,0,0,1022.4,111.36Z" transform="translate(-9.38 -16.48)"/><path class="cls-2" d="M1128.37,175a19.32,19.32,0,0,1-14.1-5.79,18.81,18.81,0,0,1-5.79-14.1,18.45,18.45,0,0,1,5.79-13.85,19.81,19.81,0,0,1,27.91,0,18.75,18.75,0,0,1,6.07,13.85,19.11,19.11,0,0,1-2.87,10,21.45,21.45,0,0,1-7.28,7.18A18.76,18.76,0,0,1,1128.37,175Z" transform="translate(-9.38 -16.48)"/></g></g><g class="cls-1"><g class="cls-1"><path d="M617.62,107.27v17.46h-3.16V107.27Z" transform="translate(-9.38 -16.48)"/><path d="M623.88,117.06v7.67H620.8V111.64h3v2.22h.15a3.7,3.7,0,0,1,1.45-1.75,4.41,4.41,0,0,1,2.45-.65,4.73,4.73,0,0,1,2.37.58,4,4,0,0,1,1.57,1.68,5.92,5.92,0,0,1,.55,2.67v8.34H629.2v-7.86a3,3,0,0,0-.67-2.06,2.45,2.45,0,0,0-1.88-.74,2.84,2.84,0,0,0-1.43.36,2.36,2.36,0,0,0-1,1A3.33,3.33,0,0,0,623.88,117.06Z" transform="translate(-9.38 -16.48)"/><path d="M641.15,124.73V111.64h3v2.22h.15a3.53,3.53,0,0,1,1.36-1.76,4,4,0,0,1,2.26-.64,3.8,3.8,0,0,1,2.24.65,3.41,3.41,0,0,1,1.29,1.75h.14a3.56,3.56,0,0,1,1.47-1.74,4.48,4.48,0,0,1,2.46-.66,4,4,0,0,1,2.95,1.15,4.51,4.51,0,0,1,1.14,3.33v8.79h-3.1v-8.31a2.26,2.26,0,0,0-.64-1.79,2.31,2.31,0,0,0-1.59-.57,2.24,2.24,0,0,0-1.74.7,2.57,2.57,0,0,0-.63,1.8v8.17h-3v-8.44a2.1,2.1,0,0,0-2.2-2.23,2.3,2.3,0,0,0-1.21.34,2.43,2.43,0,0,0-.87.95,2.92,2.92,0,0,0-.32,1.42v8Z" transform="translate(-9.38 -16.48)"/><path d="M664,129.61a6.15,6.15,0,0,1-1.17-.1,3.91,3.91,0,0,1-.85-.23l.72-2.4a3,3,0,0,0,1.69.1,1.92,1.92,0,0,0,1.13-1.27l.27-.71-4.75-13.36h3.27l3,9.88h.13l3-9.88h3.3l-5.26,14.66a6,6,0,0,1-1,1.77,4.1,4.1,0,0,1-1.48,1.13A4.92,4.92,0,0,1,664,129.61Z" transform="translate(-9.38 -16.48)"/><path d="M688.29,111.64V114h-7.74v-2.38Zm-5.81,13.09V110.4a4.15,4.15,0,0,1,.55-2.2,3.47,3.47,0,0,1,1.48-1.31,4.82,4.82,0,0,1,2.06-.44,7.58,7.58,0,0,1,1.43.13,9.25,9.25,0,0,1,.92.23l-.62,2.39-.49-.13a3.4,3.4,0,0,0-.67-.06,1.55,1.55,0,0,0-1.21.41,1.75,1.75,0,0,0-.35,1.18v14.13Z" transform="translate(-9.38 -16.48)"/><path d="M690.59,124.73V111.64h3v2.18h.13a3.23,3.23,0,0,1,1.24-1.75,3.32,3.32,0,0,1,2-.62l.57,0a3.39,3.39,0,0,1,.53.06v2.84a4.23,4.23,0,0,0-.62-.12,5.73,5.73,0,0,0-.81-.06,3.12,3.12,0,0,0-1.51.36,2.69,2.69,0,0,0-1.05,1,2.74,2.74,0,0,0-.39,1.47v7.7Z" transform="translate(-9.38 -16.48)"/><path d="M705.24,125a6.66,6.66,0,0,1-3.4-.82,5.51,5.51,0,0,1-2.19-2.34,7.63,7.63,0,0,1-.77-3.56,7.83,7.83,0,0,1,.77-3.55,5.75,5.75,0,0,1,2.16-2.39,6.1,6.1,0,0,1,3.26-.86,6.68,6.68,0,0,1,2.29.39,5.24,5.24,0,0,1,1.91,1.2,5.61,5.61,0,0,1,1.31,2.06,8.26,8.26,0,0,1,.48,3V119H700.33V117h7.77a3.42,3.42,0,0,0-.38-1.59,2.82,2.82,0,0,0-1.05-1.09,2.91,2.91,0,0,0-1.55-.4,3,3,0,0,0-1.66.45,3.3,3.3,0,0,0-1.12,1.2,3.4,3.4,0,0,0-.4,1.61V119a4.19,4.19,0,0,0,.42,2,2.87,2.87,0,0,0,1.16,1.25,3.45,3.45,0,0,0,1.76.43,3.9,3.9,0,0,0,1.22-.19,2.64,2.64,0,0,0,.94-.57,2.39,2.39,0,0,0,.61-.93l2.88.32a4.47,4.47,0,0,1-1,2,5,5,0,0,1-1.94,1.31A7.4,7.4,0,0,1,705.24,125Z" transform="translate(-9.38 -16.48)"/><path d="M719.34,125a6.65,6.65,0,0,1-3.39-.82,5.47,5.47,0,0,1-2.2-2.34,8.59,8.59,0,0,1,0-7.11,5.84,5.84,0,0,1,2.17-2.39,6.07,6.07,0,0,1,3.26-.86,6.68,6.68,0,0,1,2.29.39,5.32,5.32,0,0,1,1.91,1.2,5.74,5.74,0,0,1,1.31,2.06,8.49,8.49,0,0,1,.47,3V119H714.43V117h7.78a3.43,3.43,0,0,0-.39-1.59,2.87,2.87,0,0,0-1-1.09,3,3,0,0,0-1.56-.4,3.06,3.06,0,0,0-1.66.45,3.19,3.19,0,0,0-1.11,1.2,3.41,3.41,0,0,0-.41,1.61V119a4.19,4.19,0,0,0,.42,2,3,3,0,0,0,1.17,1.25,3.41,3.41,0,0,0,1.75.43,3.86,3.86,0,0,0,1.22-.19,2.68,2.68,0,0,0,.95-.57,2.27,2.27,0,0,0,.6-.93l2.88.32a4.45,4.45,0,0,1-1,2,5.12,5.12,0,0,1-2,1.31A7.37,7.37,0,0,1,719.34,125Z" transform="translate(-9.38 -16.48)"/><path d="M740,111.64V114H732.5v-2.38Zm-5.66-3.14h3.08v12.29a2,2,0,0,0,.19.95,1,1,0,0,0,.51.45,1.94,1.94,0,0,0,.7.12,2.89,2.89,0,0,0,.53,0,3.1,3.1,0,0,0,.37-.07l.52,2.41a6.36,6.36,0,0,1-.7.19,7.69,7.69,0,0,1-1.11.12,5,5,0,0,1-2.09-.36,3.22,3.22,0,0,1-1.47-1.2,3.58,3.58,0,0,1-.53-2Z" transform="translate(-9.38 -16.48)"/><path d="M744,109.78a1.78,1.78,0,0,1-1.26-.5,1.56,1.56,0,0,1-.52-1.18,1.53,1.53,0,0,1,.53-1.18,1.77,1.77,0,0,1,1.26-.49,1.73,1.73,0,0,1,1.25.49,1.59,1.59,0,0,1,.53,1.19,1.57,1.57,0,0,1-.53,1.18A1.79,1.79,0,0,1,744,109.78Zm-1.54,15V111.64h3.08v13.09Z" transform="translate(-9.38 -16.48)"/><path d="M748.62,124.73V111.64h3v2.22h.15a3.53,3.53,0,0,1,1.36-1.76,4,4,0,0,1,2.26-.64,3.8,3.8,0,0,1,2.24.65,3.49,3.49,0,0,1,1.3,1.75H759a3.56,3.56,0,0,1,1.47-1.74,4.48,4.48,0,0,1,2.46-.66,4,4,0,0,1,2.95,1.15,4.51,4.51,0,0,1,1.14,3.33v8.79h-3.09v-8.31a2.26,2.26,0,0,0-.65-1.79,2.31,2.31,0,0,0-1.59-.57,2.24,2.24,0,0,0-1.74.7,2.57,2.57,0,0,0-.63,1.8v8.17h-3v-8.44a2.16,2.16,0,0,0-.61-1.62,2.19,2.19,0,0,0-1.59-.61,2.3,2.3,0,0,0-1.21.34,2.5,2.5,0,0,0-.87.95,2.92,2.92,0,0,0-.32,1.42v8Z" transform="translate(-9.38 -16.48)"/><path d="M775.84,125a6.65,6.65,0,0,1-3.39-.82,5.47,5.47,0,0,1-2.2-2.34,8.54,8.54,0,0,1,0-7.11,5.75,5.75,0,0,1,2.16-2.39,6.07,6.07,0,0,1,3.26-.86,6.68,6.68,0,0,1,2.29.39,5.32,5.32,0,0,1,1.91,1.2,5.74,5.74,0,0,1,1.31,2.06,8.49,8.49,0,0,1,.47,3V119H770.93V117h7.78a3.43,3.43,0,0,0-.39-1.59,2.87,2.87,0,0,0-1-1.09,3,3,0,0,0-1.56-.4,3.06,3.06,0,0,0-1.66.45,3.19,3.19,0,0,0-1.11,1.2,3.53,3.53,0,0,0-.41,1.61V119a4.19,4.19,0,0,0,.42,2,3,3,0,0,0,1.17,1.25,3.41,3.41,0,0,0,1.75.43,3.86,3.86,0,0,0,1.22-.19,2.68,2.68,0,0,0,.95-.57,2.39,2.39,0,0,0,.61-.93l2.88.32a4.57,4.57,0,0,1-1,2,5.12,5.12,0,0,1-2,1.31A7.37,7.37,0,0,1,775.84,125Z" transform="translate(-9.38 -16.48)"/><path d="M787.77,122.34l-.11.94a14.66,14.66,0,0,1-.42,2.18c-.2.75-.41,1.43-.63,2.05s-.4,1.12-.54,1.48H784l.33-1.42c.14-.59.27-1.26.4-2a21,21,0,0,0,.27-2.27l.06-1Z" transform="translate(-9.38 -16.48)"/><path d="M800.25,107.27v17.46h-3.16V107.27Z" transform="translate(-9.38 -16.48)"/><path d="M812.35,107.27v17.46h-3.09V107.27Z" transform="translate(-9.38 -16.48)"/><path d="M816.94,109.78a1.75,1.75,0,0,1-1.25-.5,1.58,1.58,0,0,1,0-2.36,1.87,1.87,0,0,1,2.52,0,1.58,1.58,0,0,1,.52,1.19,1.56,1.56,0,0,1-.52,1.18A1.82,1.82,0,0,1,816.94,109.78Zm-1.54,15V111.64h3.09v13.09Z" transform="translate(-9.38 -16.48)"/><path d="M821.54,124.73V107.27h3.08v17.46Zm2.81-4.11v-3.73h.49l4.71-5.25h3.6l-5.78,6.44h-.64Zm5.4,4.11-4.26-6,2.08-2.17,5.87,8.13Z" transform="translate(-9.38 -16.48)"/><path d="M840.32,125a6.71,6.71,0,0,1-3.4-.82,5.51,5.51,0,0,1-2.19-2.34,8.59,8.59,0,0,1,0-7.11,5.89,5.89,0,0,1,2.16-2.39,6.13,6.13,0,0,1,3.27-.86,6.72,6.72,0,0,1,2.29.39,5.29,5.29,0,0,1,1.9,1.2,5.61,5.61,0,0,1,1.31,2.06,8.26,8.26,0,0,1,.48,3V119H835.41V117h7.77a3.31,3.31,0,0,0-.38-1.59,2.87,2.87,0,0,0-1-1.09,3,3,0,0,0-1.56-.4,3.06,3.06,0,0,0-1.66.45,3.19,3.19,0,0,0-1.11,1.2,3.41,3.41,0,0,0-.41,1.61V119a4.19,4.19,0,0,0,.42,2,3,3,0,0,0,1.17,1.25,3.41,3.41,0,0,0,1.75.43,3.86,3.86,0,0,0,1.22-.19,2.77,2.77,0,0,0,.95-.57,2.37,2.37,0,0,0,.6-.93l2.88.32a4.45,4.45,0,0,1-1,2,5.12,5.12,0,0,1-2,1.31A7.37,7.37,0,0,1,840.32,125Z" transform="translate(-9.38 -16.48)"/><path d="M861,111.64V114h-7.52v-2.38Zm-5.67-3.14h3.09v12.29a1.9,1.9,0,0,0,.19.95,1,1,0,0,0,.51.45,1.94,1.94,0,0,0,.7.12,2.89,2.89,0,0,0,.53,0,3.1,3.1,0,0,0,.37-.07l.52,2.41a6.36,6.36,0,0,1-.7.19,7.85,7.85,0,0,1-1.11.12,5,5,0,0,1-2.09-.36,3.22,3.22,0,0,1-1.47-1.2,3.66,3.66,0,0,1-.54-2Z" transform="translate(-9.38 -16.48)"/><path d="M869,125a6.39,6.39,0,0,1-3.33-.84,5.7,5.7,0,0,1-2.17-2.36,8.57,8.57,0,0,1,0-7.1,5.66,5.66,0,0,1,2.17-2.37,6.93,6.93,0,0,1,6.65,0,5.62,5.62,0,0,1,2.18,2.37,8.57,8.57,0,0,1,0,7.1,5.65,5.65,0,0,1-2.18,2.36A6.35,6.35,0,0,1,869,125Zm0-2.47a2.64,2.64,0,0,0,1.74-.57,3.45,3.45,0,0,0,1.05-1.55,7.09,7.09,0,0,0,0-4.34,3.48,3.48,0,0,0-1.05-1.56,2.59,2.59,0,0,0-1.74-.58,2.65,2.65,0,0,0-1.76.58,3.48,3.48,0,0,0-1,1.56,6.9,6.9,0,0,0,0,4.34,3.45,3.45,0,0,0,1,1.55A2.7,2.7,0,0,0,869.05,122.51Z" transform="translate(-9.38 -16.48)"/><path d="M889.43,125a6.65,6.65,0,0,1-3.39-.82,5.47,5.47,0,0,1-2.2-2.34,8.59,8.59,0,0,1,0-7.11,5.89,5.89,0,0,1,2.16-2.39,6.13,6.13,0,0,1,3.27-.86,6.68,6.68,0,0,1,2.29.39,5.32,5.32,0,0,1,1.91,1.2,5.74,5.74,0,0,1,1.31,2.06,8.49,8.49,0,0,1,.47,3V119H884.52V117h7.77a3.31,3.31,0,0,0-.38-1.59,2.87,2.87,0,0,0-1-1.09,3,3,0,0,0-1.56-.4,3.06,3.06,0,0,0-1.66.45,3.19,3.19,0,0,0-1.11,1.2,3.41,3.41,0,0,0-.41,1.61V119a4.19,4.19,0,0,0,.42,2,3,3,0,0,0,1.17,1.25,3.41,3.41,0,0,0,1.75.43,3.86,3.86,0,0,0,1.22-.19,2.68,2.68,0,0,0,.95-.57,2.27,2.27,0,0,0,.6-.93l2.88.32a4.45,4.45,0,0,1-1,2,5.12,5.12,0,0,1-2,1.31A7.37,7.37,0,0,1,889.43,125Z" transform="translate(-9.38 -16.48)"/><path d="M900,111.64l2.64,4.83,2.68-4.83h3.27l-4,6.54,4,6.55h-3.25L902.65,120l-2.75,4.72h-3.27l4-6.55-3.89-6.54Z" transform="translate(-9.38 -16.48)"/><path d="M910.86,129.64v-18h3v2.16h.18a5.72,5.72,0,0,1,.67-1,3.64,3.64,0,0,1,1.18-.93,4,4,0,0,1,1.89-.39,5,5,0,0,1,2.74.78,5.32,5.32,0,0,1,1.94,2.27,9.8,9.8,0,0,1,0,7.35,5.3,5.3,0,0,1-1.92,2.3,4.93,4.93,0,0,1-2.76.8,4.15,4.15,0,0,1-1.87-.38,3.72,3.72,0,0,1-1.19-.91,5.05,5.05,0,0,1-.69-1H914v7Zm3-11.46a6.32,6.32,0,0,0,.36,2.23,3.27,3.27,0,0,0,1,1.48,2.61,2.61,0,0,0,1.67.54,2.7,2.7,0,0,0,1.71-.55,3.33,3.33,0,0,0,1-1.51,6.21,6.21,0,0,0,.36-2.19,6.27,6.27,0,0,0-.35-2.16,3.34,3.34,0,0,0-1-1.49A2.77,2.77,0,0,0,917,114a2.69,2.69,0,0,0-1.68.52,3.18,3.18,0,0,0-1,1.45A6.41,6.41,0,0,0,913.89,118.18Z" transform="translate(-9.38 -16.48)"/><path d="M931.53,125a6.71,6.71,0,0,1-3.4-.82,5.51,5.51,0,0,1-2.19-2.34,8.59,8.59,0,0,1,0-7.11,5.84,5.84,0,0,1,2.17-2.39,6.07,6.07,0,0,1,3.26-.86,6.68,6.68,0,0,1,2.29.39,5.32,5.32,0,0,1,1.91,1.2,5.74,5.74,0,0,1,1.31,2.06,8.49,8.49,0,0,1,.47,3V119H926.62V117h7.77a3.31,3.31,0,0,0-.38-1.59,2.87,2.87,0,0,0-1-1.09,3,3,0,0,0-1.56-.4,3.06,3.06,0,0,0-1.66.45,3.19,3.19,0,0,0-1.11,1.2,3.41,3.41,0,0,0-.41,1.61V119a4.19,4.19,0,0,0,.42,2,3,3,0,0,0,1.17,1.25,3.41,3.41,0,0,0,1.75.43,3.86,3.86,0,0,0,1.22-.19,2.68,2.68,0,0,0,1-.57,2.27,2.27,0,0,0,.6-.93l2.88.32a4.45,4.45,0,0,1-1,2,5.12,5.12,0,0,1-2,1.31A7.37,7.37,0,0,1,931.53,125Z" transform="translate(-9.38 -16.48)"/><path d="M939.84,124.73V111.64h3v2.18H943a3.27,3.27,0,0,1,1.23-1.75,3.32,3.32,0,0,1,2-.62l.57,0a3.54,3.54,0,0,1,.54.06v2.84a4.87,4.87,0,0,0-.62-.12,5.87,5.87,0,0,0-.82-.06,3.15,3.15,0,0,0-1.51.36,2.76,2.76,0,0,0-1.44,2.48v7.7Z" transform="translate(-9.38 -16.48)"/><path d="M950.78,109.78a1.75,1.75,0,0,1-1.25-.5,1.58,1.58,0,0,1,0-2.36,1.87,1.87,0,0,1,2.52,0,1.58,1.58,0,0,1,.52,1.19,1.56,1.56,0,0,1-.52,1.18A1.82,1.82,0,0,1,950.78,109.78Zm-1.54,15V111.64h3.08v13.09Z" transform="translate(-9.38 -16.48)"/><path d="M955.38,124.73V111.64h2.94v2.22h.16a3.46,3.46,0,0,1,1.35-1.76,4,4,0,0,1,2.26-.64,3.81,3.81,0,0,1,2.25.65,3.41,3.41,0,0,1,1.29,1.75h.13a3.56,3.56,0,0,1,1.47-1.74,4.48,4.48,0,0,1,2.46-.66,4,4,0,0,1,2.95,1.15,4.51,4.51,0,0,1,1.14,3.33v8.79h-3.09v-8.31a2.26,2.26,0,0,0-.65-1.79,2.31,2.31,0,0,0-1.58-.57,2.25,2.25,0,0,0-1.75.7,2.61,2.61,0,0,0-.62,1.8v8.17h-3v-8.44a2.1,2.1,0,0,0-2.2-2.23,2.33,2.33,0,0,0-1.21.34,2.5,2.5,0,0,0-.87.95,3,3,0,0,0-.32,1.42v8Z" transform="translate(-9.38 -16.48)"/><path d="M982.6,125a6.66,6.66,0,0,1-3.4-.82,5.59,5.59,0,0,1-2.2-2.34,8.64,8.64,0,0,1,0-7.11,5.75,5.75,0,0,1,2.16-2.39,6.1,6.1,0,0,1,3.26-.86,6.68,6.68,0,0,1,2.29.39,5.24,5.24,0,0,1,1.91,1.2,5.61,5.61,0,0,1,1.31,2.06,8.26,8.26,0,0,1,.48,3V119H977.69V117h7.77a3.42,3.42,0,0,0-.38-1.59,2.82,2.82,0,0,0-1.05-1.09,2.91,2.91,0,0,0-1.55-.4,3.09,3.09,0,0,0-1.67.45,3.36,3.36,0,0,0-1.11,1.2,3.4,3.4,0,0,0-.4,1.61V119a4.32,4.32,0,0,0,.41,2,3,3,0,0,0,1.17,1.25,3.45,3.45,0,0,0,1.76.43,3.9,3.9,0,0,0,1.22-.19,2.64,2.64,0,0,0,.94-.57,2.39,2.39,0,0,0,.61-.93l2.88.32a4.47,4.47,0,0,1-1,2,5,5,0,0,1-1.94,1.31A7.4,7.4,0,0,1,982.6,125Z" transform="translate(-9.38 -16.48)"/><path d="M994,117.06v7.67H990.9V111.64h3v2.22H994a3.74,3.74,0,0,1,1.44-1.75,4.42,4.42,0,0,1,2.46-.65,4.78,4.78,0,0,1,2.37.58,4,4,0,0,1,1.56,1.68,5.79,5.79,0,0,1,.55,2.67v8.34h-3.08v-7.86a3,3,0,0,0-.68-2.06,2.42,2.42,0,0,0-1.87-.74,2.85,2.85,0,0,0-1.44.36,2.48,2.48,0,0,0-1,1A3.45,3.45,0,0,0,994,117.06Z" transform="translate(-9.38 -16.48)"/><path d="M1012,111.64V114h-7.53v-2.38Zm-5.67-3.14h3.08v12.29a2,2,0,0,0,.19.95,1,1,0,0,0,.51.45,1.94,1.94,0,0,0,.7.12,2.89,2.89,0,0,0,.53,0,3.1,3.1,0,0,0,.37-.07l.52,2.41a6.36,6.36,0,0,1-.7.19,7.53,7.53,0,0,1-1.11.12,5,5,0,0,1-2.09-.36,3.22,3.22,0,0,1-1.47-1.2,3.58,3.58,0,0,1-.53-2Z" transform="translate(-9.38 -16.48)"/><path d="M1026,125a6.37,6.37,0,0,1-3.32-.84,5.72,5.72,0,0,1-2.18-2.36,8.57,8.57,0,0,1,0-7.1,5.69,5.69,0,0,1,2.18-2.37,6.93,6.93,0,0,1,6.65,0,5.69,5.69,0,0,1,2.18,2.37,8.57,8.57,0,0,1,0,7.1,5.72,5.72,0,0,1-2.18,2.36A6.39,6.39,0,0,1,1026,125Zm0-2.47a2.68,2.68,0,0,0,1.74-.57,3.44,3.44,0,0,0,1-1.55,6.9,6.9,0,0,0,0-4.34,3.47,3.47,0,0,0-1-1.56,2.63,2.63,0,0,0-1.74-.58,2.68,2.68,0,0,0-1.77.58,3.48,3.48,0,0,0-1.05,1.56,7.09,7.09,0,0,0,0,4.34,3.45,3.45,0,0,0,1.05,1.55A2.72,2.72,0,0,0,1026,122.51Z" transform="translate(-9.38 -16.48)"/><path d="M1046,111.64l-4.67,13.09h-3.4l-4.67-13.09h3.29l3,9.72h.14l3-9.72Z" transform="translate(-9.38 -16.48)"/><path d="M1053.32,125a6.71,6.71,0,0,1-3.4-.82,5.51,5.51,0,0,1-2.19-2.34,8.59,8.59,0,0,1,0-7.11,5.89,5.89,0,0,1,2.16-2.39,6.13,6.13,0,0,1,3.27-.86,6.68,6.68,0,0,1,2.29.39,5.32,5.32,0,0,1,1.91,1.2,5.74,5.74,0,0,1,1.31,2.06,8.49,8.49,0,0,1,.47,3V119h-10.73V117h7.77a3.31,3.31,0,0,0-.38-1.59,2.87,2.87,0,0,0-1-1.09,3,3,0,0,0-1.56-.4,3.06,3.06,0,0,0-1.66.45,3.19,3.19,0,0,0-1.11,1.2,3.41,3.41,0,0,0-.41,1.61V119a4.19,4.19,0,0,0,.42,2,3,3,0,0,0,1.17,1.25,3.41,3.41,0,0,0,1.75.43,3.86,3.86,0,0,0,1.22-.19,2.68,2.68,0,0,0,1-.57,2.37,2.37,0,0,0,.6-.93l2.88.32a4.45,4.45,0,0,1-1,2,5.12,5.12,0,0,1-2,1.31A7.37,7.37,0,0,1,1053.32,125Z" transform="translate(-9.38 -16.48)"/><path d="M1061.63,124.73V111.64h3v2.18h.14a3.27,3.27,0,0,1,1.23-1.75,3.32,3.32,0,0,1,2-.62l.57,0a3.54,3.54,0,0,1,.54.06v2.84a4.87,4.87,0,0,0-.62-.12,5.76,5.76,0,0,0-.82-.06,3.15,3.15,0,0,0-1.51.36,2.76,2.76,0,0,0-1.44,2.48v7.7Z" transform="translate(-9.38 -16.48)"/><path d="M1082.58,125a6.28,6.28,0,0,1-3.37-.86,5.7,5.7,0,0,1-2.15-2.38,8.46,8.46,0,0,1,0-7,5.78,5.78,0,0,1,2.17-2.39,6.26,6.26,0,0,1,3.32-.86,6.49,6.49,0,0,1,2.82.59,4.77,4.77,0,0,1,2.81,4.12h-3a2.88,2.88,0,0,0-.85-1.58,2.51,2.51,0,0,0-1.79-.64,2.79,2.79,0,0,0-1.66.51,3.23,3.23,0,0,0-1.11,1.45,5.76,5.76,0,0,0-.4,2.27,6.12,6.12,0,0,0,.39,2.3,3.31,3.31,0,0,0,1.11,1.47,2.72,2.72,0,0,0,1.67.52,2.88,2.88,0,0,0,1.23-.26,2.35,2.35,0,0,0,.9-.76,2.84,2.84,0,0,0,.51-1.2h3a5.18,5.18,0,0,1-.82,2.46,4.84,4.84,0,0,1-1.93,1.67A6.41,6.41,0,0,1,1082.58,125Z" transform="translate(-9.38 -16.48)"/><path d="M1096.31,125a6.37,6.37,0,0,1-3.32-.84,5.72,5.72,0,0,1-2.18-2.36,8.57,8.57,0,0,1,0-7.1,5.69,5.69,0,0,1,2.18-2.37,6.93,6.93,0,0,1,6.65,0,5.69,5.69,0,0,1,2.18,2.37,8.57,8.57,0,0,1,0,7.1,5.72,5.72,0,0,1-2.18,2.36A6.39,6.39,0,0,1,1096.31,125Zm0-2.47a2.66,2.66,0,0,0,1.74-.57,3.53,3.53,0,0,0,1-1.55,7.09,7.09,0,0,0,0-4.34,3.57,3.57,0,0,0-1-1.56,2.61,2.61,0,0,0-1.74-.58,2.68,2.68,0,0,0-1.77.58,3.47,3.47,0,0,0-1,1.56,6.9,6.9,0,0,0,0,4.34,3.44,3.44,0,0,0,1,1.55A2.72,2.72,0,0,0,1096.33,122.51Z" transform="translate(-9.38 -16.48)"/><path d="M1111.71,111.64V114H1104v-2.38Zm-5.81,13.09V110.4a4.06,4.06,0,0,1,.55-2.2,3.47,3.47,0,0,1,1.48-1.31,4.82,4.82,0,0,1,2.06-.44,7.58,7.58,0,0,1,1.43.13,9.25,9.25,0,0,1,.92.23l-.62,2.39-.49-.13a3.4,3.4,0,0,0-.67-.06,1.53,1.53,0,0,0-1.21.41,1.75,1.75,0,0,0-.35,1.18v14.13Z" transform="translate(-9.38 -16.48)"/><path d="M1120.64,111.64V114h-7.74v-2.38Zm-5.81,13.09V110.4a4.15,4.15,0,0,1,.55-2.2,3.47,3.47,0,0,1,1.48-1.31,4.82,4.82,0,0,1,2.06-.44,7.58,7.58,0,0,1,1.43.13,9.25,9.25,0,0,1,.92.23l-.62,2.39-.49-.13a3.4,3.4,0,0,0-.67-.06,1.55,1.55,0,0,0-1.21.41,1.75,1.75,0,0,0-.35,1.18v14.13Z" transform="translate(-9.38 -16.48)"/><path d="M1128.24,125a6.69,6.69,0,0,1-3.4-.82,5.51,5.51,0,0,1-2.19-2.34,8.59,8.59,0,0,1,0-7.11,5.89,5.89,0,0,1,2.16-2.39,6.13,6.13,0,0,1,3.27-.86,6.72,6.72,0,0,1,2.29.39,5.29,5.29,0,0,1,1.9,1.2,5.61,5.61,0,0,1,1.31,2.06,8.26,8.26,0,0,1,.48,3V119h-10.73V117h7.77a3.31,3.31,0,0,0-.38-1.59,2.82,2.82,0,0,0-1-1.09,2.91,2.91,0,0,0-1.55-.4,3,3,0,0,0-1.66.45,3.19,3.19,0,0,0-1.11,1.2,3.41,3.41,0,0,0-.41,1.61V119a4.19,4.19,0,0,0,.42,2,3,3,0,0,0,1.17,1.25,3.41,3.41,0,0,0,1.75.43,3.86,3.86,0,0,0,1.22-.19,2.77,2.77,0,0,0,1-.57,2.49,2.49,0,0,0,.6-.93l2.88.32a4.56,4.56,0,0,1-1,2,5.12,5.12,0,0,1-2,1.31A7.37,7.37,0,0,1,1128.24,125Z" transform="translate(-9.38 -16.48)"/><path d="M1142.34,125a6.65,6.65,0,0,1-3.39-.82,5.47,5.47,0,0,1-2.2-2.34,8.54,8.54,0,0,1,0-7.11,5.75,5.75,0,0,1,2.16-2.39,6.07,6.07,0,0,1,3.26-.86,6.68,6.68,0,0,1,2.29.39,5.32,5.32,0,0,1,1.91,1.2,5.74,5.74,0,0,1,1.31,2.06,8.49,8.49,0,0,1,.47,3V119h-10.73V117h7.78a3.43,3.43,0,0,0-.39-1.59,2.87,2.87,0,0,0-1-1.09,3,3,0,0,0-1.56-.4,3.06,3.06,0,0,0-1.66.45,3.19,3.19,0,0,0-1.11,1.2,3.53,3.53,0,0,0-.41,1.61V119a4.19,4.19,0,0,0,.42,2,3,3,0,0,0,1.17,1.25,3.41,3.41,0,0,0,1.75.43,3.86,3.86,0,0,0,1.22-.19,2.68,2.68,0,0,0,1-.57,2.39,2.39,0,0,0,.61-.93l2.88.32a4.57,4.57,0,0,1-1,2,5.12,5.12,0,0,1-2,1.31A7.37,7.37,0,0,1,1142.34,125Z" transform="translate(-9.38 -16.48)"/></g></g></g></g></svg>