<svg xmlns="http://www.w3.org/2000/svg" viewBox="0 0 819.29 147.73"><defs><style>.cls-1{isolation:isolate;}.cls-2{fill:#d0d5e6;}</style></defs><title>Resume New</title><g id="Layer_2" data-name="Layer 2"><g id="Layer_1-2" data-name="Layer 1"><g class="cls-1"><g class="cls-1"><path class="cls-2" d="M9.38,172.73V27.27H72.16q16.19,0,28.34,5.9a44.15,44.15,0,0,1,18.89,17q6.75,11.09,6.75,26.56,0,15.63-6.93,26.35a43.06,43.06,0,0,1-19.39,16.2q-12.46,5.46-29.08,5.46H33.24V94H62.78a36,36,0,0,0,11.9-1.74,15.06,15.06,0,0,0,7.6-5.57q2.66-3.84,2.66-10a17.92,17.92,0,0,0-2.66-10.19,15.53,15.53,0,0,0-7.6-5.82,33.36,33.36,0,0,0-11.9-1.88H48.86V172.73ZM94.6,106,131,172.73H88.07L52.56,106Z" transform="translate(-9.38 -27.27)"/><path class="cls-2" d="M188.07,174.71q-17.48,0-30.08-6.71a46.18,46.18,0,0,1-19.39-19.31q-6.78-12.62-6.78-30.23,0-16.89,6.81-29.54a48.67,48.67,0,0,1,19.25-19.67q12.44-7,29.33-7a62.11,62.11,0,0,1,22.38,3.84A47,47,0,0,1,226.7,77.17a49.41,49.41,0,0,1,10.94,17.64,67,67,0,0,1,3.83,23.37v9.09H144V105.68H205.4A15.49,15.49,0,0,0,203,97.41a16.08,16.08,0,0,0-6.18-5.61,18.65,18.65,0,0,0-8.77-2,19,19,0,0,0-8.74,2A16.53,16.53,0,0,0,173,97.37a15.54,15.54,0,0,0-2.52,8.31V129a19.64,19.64,0,0,0,2.2,9.37,16,16,0,0,0,6.32,6.46,19.77,19.77,0,0,0,9.95,2.35,23.05,23.05,0,0,0,7.42-1.14,16.32,16.32,0,0,0,5.79-3.3,13,13,0,0,0,3.55-5.22h35.79a40.58,40.58,0,0,1-8.73,19.71,44.89,44.89,0,0,1-18.22,12.92Q203.2,174.72,188.07,174.71Z" transform="translate(-9.38 -27.27)"/><path class="cls-2" d="M351.7,99.15H315.62a9.9,9.9,0,0,0-2.35-5.76A13.45,13.45,0,0,0,308,89.67a20.63,20.63,0,0,0-15.8.53q-3.63,1.85-3.55,5.25a5.86,5.86,0,0,0,2.09,4.48c1.45,1.37,4.25,2.44,8.42,3.19l22.16,4q16.76,3.06,25,10.26t8.28,19.29a31.67,31.67,0,0,1-6.93,20.2q-6.86,8.57-18.68,13.21A73.17,73.17,0,0,1,302,174.71q-25,0-39.1-10.22t-15.73-27h38.92a11,11,0,0,0,5.15,8,20.06,20.06,0,0,0,11,2.8,19.13,19.13,0,0,0,8.92-1.84c2.34-1.23,3.54-3,3.58-5.26a5.76,5.76,0,0,0-3.08-5c-2-1.23-5.15-2.22-9.42-3L283,129.83q-16.69-2.91-25-11.08t-8.24-21q-.08-11.37,6-19.29t17.4-12.07q11.33-4.16,26.88-4.16,23.65,0,37.32,9.81T351.7,99.15Z" transform="translate(-9.38 -27.27)"/><path class="cls-2" d="M434.93,125V63.64h39.21V172.73H436.92V152h-1.14a30.8,30.8,0,0,1-12.43,16.3q-8.87,5.85-21.09,5.86a37.36,37.36,0,0,1-20-5.26A35.64,35.64,0,0,1,369,154.4a46.45,46.45,0,0,1-4.8-21.16V63.64H403.4V125q.06,8.1,4.15,12.71T419,142.33a16.5,16.5,0,0,0,8.49-2.1,14,14,0,0,0,5.54-6A19.77,19.77,0,0,0,434.93,125Z" transform="translate(-9.38 -27.27)"/><path class="cls-2" d="M488.62,172.73V63.64h37.22V84.37H527a31.93,31.93,0,0,1,11.65-16.19,35.25,35.25,0,0,1,39.42.11,24.28,24.28,0,0,1,10,16.08h1.14A27.9,27.9,0,0,1,601,68.29a37,37,0,0,1,21.16-6.08q15.71,0,25.47,10.09t9.76,26.85v73.58h-39.2V109.09q0-7.17-3.63-11.26a12.34,12.34,0,0,0-9.73-4.08,12,12,0,0,0-9.55,4.08q-3.51,4.1-3.51,11.26v63.64h-37.5V109.09q0-7.17-3.63-11.26a12.36,12.36,0,0,0-9.73-4.08,12.73,12.73,0,0,0-7,1.85,12.12,12.12,0,0,0-4.51,5.29,19.41,19.41,0,0,0-1.59,8.2v63.64Z" transform="translate(-9.38 -27.27)"/><path class="cls-2" d="M723.56,174.71q-17.47,0-30.08-6.71a46.23,46.23,0,0,1-19.39-19.31q-6.78-12.62-6.78-30.23,0-16.89,6.82-29.54a48.61,48.61,0,0,1,19.25-19.67q12.42-7,29.33-7a62.06,62.06,0,0,1,22.37,3.84A47.08,47.08,0,0,1,762.2,77.17a49.38,49.38,0,0,1,10.93,17.64A67,67,0,0,1,777,118.18v9.09H679.53V105.68h61.36a15.41,15.41,0,0,0-2.38-8.27,16.08,16.08,0,0,0-6.18-5.61,18.62,18.62,0,0,0-8.77-2,19,19,0,0,0-8.73,2,16.38,16.38,0,0,0-6.36,5.57,15.37,15.37,0,0,0-2.52,8.31V129a19.52,19.52,0,0,0,2.2,9.37,15.91,15.91,0,0,0,6.32,6.46,19.7,19.7,0,0,0,9.94,2.35,23.11,23.11,0,0,0,7.43-1.14,16.36,16.36,0,0,0,5.78-3.3,12.87,12.87,0,0,0,3.55-5.22H777a40.5,40.5,0,0,1-8.74,19.71A44.86,44.86,0,0,1,750,170.13Q738.68,174.72,723.56,174.71Z" transform="translate(-9.38 -27.27)"/><path class="cls-2" d="M808.78,175a19.31,19.31,0,0,1-14.09-5.79,18.81,18.81,0,0,1-5.79-14.1,18.45,18.45,0,0,1,5.79-13.85,19.81,19.81,0,0,1,27.91,0,18.75,18.75,0,0,1,6.07,13.85,19.12,19.12,0,0,1-2.88,10,21.28,21.28,0,0,1-7.28,7.18A18.71,18.71,0,0,1,808.78,175Z" transform="translate(-9.38 -27.27)"/></g></g><g class="cls-1"><path d="M13.18,137.73H9.81L16,120.27h3.91L26,137.73H22.64L18,123.85h-.13Zm.11-6.85H22.5v2.54H13.29Z" transform="translate(-9.38 -27.27)"/><path d="M28.19,137.73V120.27h3.09v6.53h.13a5.22,5.22,0,0,1,.67-1,3.7,3.7,0,0,1,1.17-.93,4.09,4.09,0,0,1,1.9-.39,5,5,0,0,1,2.74.78,5.32,5.32,0,0,1,1.94,2.27,9.8,9.8,0,0,1,0,7.35,5.3,5.3,0,0,1-1.92,2.3,5,5,0,0,1-2.76.8,4.12,4.12,0,0,1-1.87-.38,3.61,3.61,0,0,1-1.19-.91,5.05,5.05,0,0,1-.69-1h-.18v2.07Zm3-6.55a6.32,6.32,0,0,0,.36,2.23,3.27,3.27,0,0,0,1.05,1.48,2.59,2.59,0,0,0,1.66.54,2.7,2.7,0,0,0,1.72-.55,3.33,3.33,0,0,0,1-1.51,6.21,6.21,0,0,0,.36-2.19,6.27,6.27,0,0,0-.35-2.16,3.34,3.34,0,0,0-1-1.49,2.78,2.78,0,0,0-1.73-.53,2.66,2.66,0,0,0-1.67.52,3.18,3.18,0,0,0-1,1.45A6.41,6.41,0,0,0,31.22,131.18Z" transform="translate(-9.38 -27.27)"/><path d="M48.77,138a6.37,6.37,0,0,1-3.32-.84,5.72,5.72,0,0,1-2.18-2.36,8.57,8.57,0,0,1,0-7.1,5.69,5.69,0,0,1,2.18-2.37,6.93,6.93,0,0,1,6.65,0,5.69,5.69,0,0,1,2.18,2.37,8.57,8.57,0,0,1,0,7.1,5.72,5.72,0,0,1-2.18,2.36A6.39,6.39,0,0,1,48.77,138Zm0-2.47a2.68,2.68,0,0,0,1.74-.57,3.44,3.44,0,0,0,1-1.55,6.9,6.9,0,0,0,0-4.34,3.47,3.47,0,0,0-1-1.56,2.63,2.63,0,0,0-1.74-.58,2.68,2.68,0,0,0-1.77.58A3.48,3.48,0,0,0,46,129.05a7.09,7.09,0,0,0,0,4.34A3.45,3.45,0,0,0,47,134.94,2.72,2.72,0,0,0,48.79,135.51Z" transform="translate(-9.38 -27.27)"/><path d="M65.88,132.22v-7.58H69v13.09H66V135.4h-.14a3.9,3.9,0,0,1-1.45,1.8,4.29,4.29,0,0,1-2.48.7,4.33,4.33,0,0,1-2.27-.58,3.87,3.87,0,0,1-1.54-1.68,5.86,5.86,0,0,1-.56-2.67v-8.33h3.09v7.85a2.82,2.82,0,0,0,.68,2,2.33,2.33,0,0,0,1.79.73,2.81,2.81,0,0,0,1.32-.33,2.62,2.62,0,0,0,1-1A3,3,0,0,0,65.88,132.22Z" transform="translate(-9.38 -27.27)"/><path d="M78.55,124.64V127H71v-2.38Zm-5.67-3.14H76v12.29a1.9,1.9,0,0,0,.19,1,1,1,0,0,0,.51.45,1.94,1.94,0,0,0,.7.12,2.89,2.89,0,0,0,.53-.05,3.57,3.57,0,0,0,.37-.07l.52,2.41a7.07,7.07,0,0,1-.7.19,7.84,7.84,0,0,1-1.12.12,5,5,0,0,1-2.08-.36,3.22,3.22,0,0,1-1.47-1.2,3.58,3.58,0,0,1-.54-2Z" transform="translate(-9.38 -27.27)"/><path d="M86.85,137.73V124.64h3v2.22H90a3.48,3.48,0,0,1,1.36-1.76,4,4,0,0,1,2.26-.64,3.8,3.8,0,0,1,2.24.65,3.41,3.41,0,0,1,1.29,1.75h.14a3.56,3.56,0,0,1,1.47-1.74,4.48,4.48,0,0,1,2.46-.66,4,4,0,0,1,3,1.15,4.51,4.51,0,0,1,1.14,3.33v8.79h-3.09v-8.31a2.26,2.26,0,0,0-.65-1.79,2.33,2.33,0,0,0-1.59-.57,2.24,2.24,0,0,0-1.74.7,2.57,2.57,0,0,0-.63,1.8v8.17h-3v-8.44a2.1,2.1,0,0,0-2.2-2.23,2.3,2.3,0,0,0-1.21.34,2.35,2.35,0,0,0-.87.95,2.92,2.92,0,0,0-.33,1.42v8Z" transform="translate(-9.38 -27.27)"/><path d="M109.72,142.61a6.08,6.08,0,0,1-1.17-.1,3.91,3.91,0,0,1-.85-.23l.72-2.4a3,3,0,0,0,1.69.1,1.92,1.92,0,0,0,1.13-1.27l.26-.71-4.74-13.36H110l3,9.88h.13l3-9.88h3.3l-5.26,14.66a6.26,6.26,0,0,1-1,1.77,4.1,4.1,0,0,1-1.48,1.13A4.92,4.92,0,0,1,109.72,142.61Z" transform="translate(-9.38 -27.27)"/><path d="M127.36,142.64v-18h3v2.16h.18a5.72,5.72,0,0,1,.67-1,3.64,3.64,0,0,1,1.18-.93,4,4,0,0,1,1.89-.39,5,5,0,0,1,2.74.78,5.25,5.25,0,0,1,1.94,2.27,9.87,9.87,0,0,1,0,7.35,5.39,5.39,0,0,1-1.93,2.3,4.93,4.93,0,0,1-2.76.8,4.15,4.15,0,0,1-1.87-.38,3.72,3.72,0,0,1-1.19-.91,5.05,5.05,0,0,1-.69-1h-.13v7Zm3-11.46a6.32,6.32,0,0,0,.36,2.23,3.27,3.27,0,0,0,1,1.48,2.61,2.61,0,0,0,1.67.54,2.7,2.7,0,0,0,1.71-.55,3.33,3.33,0,0,0,1-1.51,6.21,6.21,0,0,0,.36-2.19,6.27,6.27,0,0,0-.35-2.16,3.27,3.27,0,0,0-1-1.49,2.75,2.75,0,0,0-1.72-.53,2.69,2.69,0,0,0-1.68.52,3.18,3.18,0,0,0-1.05,1.45A6.41,6.41,0,0,0,130.38,131.18Z" transform="translate(-9.38 -27.27)"/><path d="M142.23,137.73V124.64h3v2.18h.13a3.23,3.23,0,0,1,1.24-1.75,3.29,3.29,0,0,1,2-.62l.58,0a3.39,3.39,0,0,1,.53.06v2.84a4.23,4.23,0,0,0-.62-.12,5.73,5.73,0,0,0-.81-.06,3.12,3.12,0,0,0-1.51.36,2.69,2.69,0,0,0-1.05,1,2.74,2.74,0,0,0-.39,1.47v7.7Z" transform="translate(-9.38 -27.27)"/><path d="M156.88,138a6.66,6.66,0,0,1-3.4-.82,5.51,5.51,0,0,1-2.19-2.34,7.63,7.63,0,0,1-.77-3.56,7.83,7.83,0,0,1,.77-3.55,5.75,5.75,0,0,1,2.16-2.39,6.1,6.1,0,0,1,3.26-.86,6.68,6.68,0,0,1,2.29.39,5.24,5.24,0,0,1,1.91,1.2,5.61,5.61,0,0,1,1.31,2.06,8.26,8.26,0,0,1,.48,3V132H152V130h7.77a3.42,3.42,0,0,0-.38-1.59,2.82,2.82,0,0,0-1.05-1.09,2.91,2.91,0,0,0-1.55-.4,3,3,0,0,0-1.66.45,3.3,3.3,0,0,0-1.12,1.2,3.4,3.4,0,0,0-.4,1.61V132a4.19,4.19,0,0,0,.42,2,2.87,2.87,0,0,0,1.16,1.25,3.45,3.45,0,0,0,1.76.43,3.9,3.9,0,0,0,1.22-.19,2.64,2.64,0,0,0,.94-.57,2.39,2.39,0,0,0,.61-.93l2.88.32a4.47,4.47,0,0,1-1,2,5,5,0,0,1-1.94,1.31A7.4,7.4,0,0,1,156.88,138Z" transform="translate(-9.38 -27.27)"/><path d="M176.5,124.64l-4.67,13.09h-3.41l-4.66-13.09h3.29l3,9.72h.14l3-9.72Z" transform="translate(-9.38 -27.27)"/><path d="M180.05,122.78a1.78,1.78,0,0,1-1.26-.5,1.56,1.56,0,0,1-.52-1.18,1.53,1.53,0,0,1,.53-1.18,1.77,1.77,0,0,1,1.26-.49,1.74,1.74,0,0,1,1.25.49,1.59,1.59,0,0,1,.53,1.19,1.57,1.57,0,0,1-.53,1.18A1.81,1.81,0,0,1,180.05,122.78Zm-1.54,14.95V124.64h3.08v13.09Z" transform="translate(-9.38 -27.27)"/><path d="M190.35,138a6.32,6.32,0,0,1-3.32-.84,5.65,5.65,0,0,1-2.18-2.36,8.57,8.57,0,0,1,0-7.1,5.62,5.62,0,0,1,2.18-2.37,6.91,6.91,0,0,1,6.64,0,5.62,5.62,0,0,1,2.18,2.37,8.57,8.57,0,0,1,0,7.1,5.65,5.65,0,0,1-2.18,2.36A6.32,6.32,0,0,1,190.35,138Zm0-2.47a2.68,2.68,0,0,0,1.74-.57,3.52,3.52,0,0,0,1-1.55,6.9,6.9,0,0,0,0-4.34,3.55,3.55,0,0,0-1-1.56,2.63,2.63,0,0,0-1.74-.58,2.68,2.68,0,0,0-1.77.58,3.48,3.48,0,0,0-1,1.56,7.09,7.09,0,0,0,0,4.34,3.45,3.45,0,0,0,1,1.55A2.72,2.72,0,0,0,190.37,135.51Z" transform="translate(-9.38 -27.27)"/><path d="M207.46,132.22v-7.58h3.08v13.09h-3V135.4h-.14a4,4,0,0,1-1.45,1.8,4.29,4.29,0,0,1-2.48.7,4.39,4.39,0,0,1-2.28-.58,3.91,3.91,0,0,1-1.53-1.68,5.86,5.86,0,0,1-.56-2.67v-8.33h3.09v7.85a2.77,2.77,0,0,0,.68,2,2.32,2.32,0,0,0,1.79.73,2.87,2.87,0,0,0,1.32-.33,2.62,2.62,0,0,0,1-1A3,3,0,0,0,207.46,132.22Z" transform="translate(-9.38 -27.27)"/><path d="M223.94,128.1l-2.82.3a2.1,2.1,0,0,0-.41-.8,2,2,0,0,0-.79-.6,2.75,2.75,0,0,0-1.21-.23,3,3,0,0,0-1.61.41,1.21,1.21,0,0,0-.64,1.09,1.11,1.11,0,0,0,.42.93,3.56,3.56,0,0,0,1.42.58l2.24.48a5.64,5.64,0,0,1,2.76,1.27,3,3,0,0,1,.92,2.28,3.58,3.58,0,0,1-.72,2.17,4.66,4.66,0,0,1-2,1.47,7.35,7.35,0,0,1-2.9.53,6.66,6.66,0,0,1-3.87-1,4,4,0,0,1-1.75-2.81l3-.29a2.13,2.13,0,0,0,.87,1.33,3,3,0,0,0,1.73.46,3.14,3.14,0,0,0,1.77-.46,1.33,1.33,0,0,0,.67-1.11,1.18,1.18,0,0,0-.43-.93,3,3,0,0,0-1.34-.56l-2.23-.47a5.32,5.32,0,0,1-2.79-1.33,3.21,3.21,0,0,1-.89-2.36,3.29,3.29,0,0,1,.66-2.1,4.18,4.18,0,0,1,1.87-1.38,7.12,7.12,0,0,1,2.76-.5,6,6,0,0,1,3.63,1A4.11,4.11,0,0,1,223.94,128.1Z" transform="translate(-9.38 -27.27)"/><path d="M238.28,138a6.69,6.69,0,0,1-3.4-.82,5.51,5.51,0,0,1-2.19-2.34,8.59,8.59,0,0,1,0-7.11,5.89,5.89,0,0,1,2.16-2.39,6.13,6.13,0,0,1,3.27-.86,6.72,6.72,0,0,1,2.29.39,5.41,5.41,0,0,1,1.91,1.2,5.59,5.59,0,0,1,1.3,2.06,8.26,8.26,0,0,1,.48,3V132H233.37V130h7.77a3.31,3.31,0,0,0-.38-1.59,2.87,2.87,0,0,0-1-1.09,3,3,0,0,0-1.56-.4,3.06,3.06,0,0,0-1.66.45,3.19,3.19,0,0,0-1.11,1.2,3.41,3.41,0,0,0-.41,1.61V132a4.19,4.19,0,0,0,.42,2,3,3,0,0,0,1.17,1.25,3.41,3.41,0,0,0,1.75.43,3.86,3.86,0,0,0,1.22-.19,2.77,2.77,0,0,0,1-.57,2.37,2.37,0,0,0,.6-.93l2.88.32a4.45,4.45,0,0,1-1,2,5.12,5.12,0,0,1-1.95,1.31A7.37,7.37,0,0,1,238.28,138Z" transform="translate(-9.38 -27.27)"/><path d="M248.86,124.64l2.64,4.83,2.68-4.83h3.27l-3.95,6.54,4,6.55h-3.24L251.5,133l-2.75,4.72h-3.27l4-6.55-3.89-6.54Z" transform="translate(-9.38 -27.27)"/><path d="M259.71,142.64v-18h3v2.16h.18a5.22,5.22,0,0,1,.67-1,3.64,3.64,0,0,1,1.18-.93,4,4,0,0,1,1.89-.39,5,5,0,0,1,2.74.78,5.32,5.32,0,0,1,1.94,2.27,9.8,9.8,0,0,1,0,7.35,5.3,5.3,0,0,1-1.92,2.3,5,5,0,0,1-2.76.8,4.12,4.12,0,0,1-1.87-.38,3.72,3.72,0,0,1-1.19-.91,5.05,5.05,0,0,1-.69-1h-.13v7Zm3-11.46a6.32,6.32,0,0,0,.36,2.23,3.27,3.27,0,0,0,1,1.48,2.61,2.61,0,0,0,1.67.54,2.7,2.7,0,0,0,1.71-.55,3.33,3.33,0,0,0,1-1.51,6.21,6.21,0,0,0,.36-2.19,6.27,6.27,0,0,0-.35-2.16,3.34,3.34,0,0,0-1-1.49,2.77,2.77,0,0,0-1.72-.53,2.69,2.69,0,0,0-1.68.52,3.18,3.18,0,0,0-1.05,1.45A6.41,6.41,0,0,0,262.74,131.18Z" transform="translate(-9.38 -27.27)"/><path d="M280.38,138a6.71,6.71,0,0,1-3.4-.82,5.51,5.51,0,0,1-2.19-2.34,8.59,8.59,0,0,1,0-7.11,5.89,5.89,0,0,1,2.16-2.39,6.13,6.13,0,0,1,3.27-.86,6.72,6.72,0,0,1,2.29.39,5.41,5.41,0,0,1,1.91,1.2,5.59,5.59,0,0,1,1.3,2.06,8.26,8.26,0,0,1,.48,3V132H275.47V130h7.77a3.31,3.31,0,0,0-.38-1.59,2.87,2.87,0,0,0-1-1.09,3,3,0,0,0-1.56-.4,3.06,3.06,0,0,0-1.66.45,3.19,3.19,0,0,0-1.11,1.2,3.41,3.41,0,0,0-.41,1.61V132a4.19,4.19,0,0,0,.42,2,3,3,0,0,0,1.17,1.25,3.41,3.41,0,0,0,1.75.43,3.86,3.86,0,0,0,1.22-.19,2.77,2.77,0,0,0,.95-.57,2.37,2.37,0,0,0,.6-.93l2.88.32a4.45,4.45,0,0,1-1,2,5.12,5.12,0,0,1-2,1.31A7.37,7.37,0,0,1,280.38,138Z" transform="translate(-9.38 -27.27)"/><path d="M288.69,137.73V124.64h3v2.18h.14a3.22,3.22,0,0,1,1.23-1.75,3.32,3.32,0,0,1,2-.62l.57,0a3.39,3.39,0,0,1,.53.06v2.84a4.32,4.32,0,0,0-.61-.12,6,6,0,0,0-.82-.06,3.15,3.15,0,0,0-1.51.36,2.69,2.69,0,0,0-1,1,2.74,2.74,0,0,0-.39,1.47v7.7Z" transform="translate(-9.38 -27.27)"/><path d="M299.63,122.78a1.78,1.78,0,0,1-1.26-.5,1.59,1.59,0,0,1,0-2.36,1.87,1.87,0,0,1,2.52,0,1.58,1.58,0,0,1,.52,1.19,1.56,1.56,0,0,1-.52,1.18A1.84,1.84,0,0,1,299.63,122.78Zm-1.54,14.95V124.64h3.08v13.09Z" transform="translate(-9.38 -27.27)"/><path d="M310,138a6.69,6.69,0,0,1-3.4-.82,5.51,5.51,0,0,1-2.19-2.34,8.59,8.59,0,0,1,0-7.11,5.89,5.89,0,0,1,2.16-2.39,6.13,6.13,0,0,1,3.27-.86,6.72,6.72,0,0,1,2.29.39,5.29,5.29,0,0,1,1.9,1.2,5.61,5.61,0,0,1,1.31,2.06,8.26,8.26,0,0,1,.48,3V132H305.11V130h7.77a3.31,3.31,0,0,0-.38-1.59,2.87,2.87,0,0,0-1-1.09,3,3,0,0,0-1.56-.4,3,3,0,0,0-1.66.45,3.19,3.19,0,0,0-1.11,1.2,3.41,3.41,0,0,0-.41,1.61V132a4.19,4.19,0,0,0,.42,2,3,3,0,0,0,1.17,1.25,3.41,3.41,0,0,0,1.75.43,3.86,3.86,0,0,0,1.22-.19,2.77,2.77,0,0,0,1-.57,2.37,2.37,0,0,0,.6-.93l2.88.32a4.45,4.45,0,0,1-1,2,5.12,5.12,0,0,1-1.95,1.31A7.37,7.37,0,0,1,310,138Z" transform="translate(-9.38 -27.27)"/><path d="M321.41,130.06v7.67h-3.08V124.64h2.95v2.22h.15a3.7,3.7,0,0,1,1.45-1.75,4.41,4.41,0,0,1,2.45-.65,4.73,4.73,0,0,1,2.37.58,4.05,4.05,0,0,1,1.57,1.68,5.92,5.92,0,0,1,.55,2.67v8.34h-3.09v-7.86a2.91,2.91,0,0,0-.68-2.06,2.41,2.41,0,0,0-1.87-.74,2.81,2.81,0,0,0-1.43.36,2.36,2.36,0,0,0-1,1A3.33,3.33,0,0,0,321.41,130.06Z" transform="translate(-9.38 -27.27)"/><path d="M338.55,138a6.24,6.24,0,0,1-3.36-.86,5.72,5.72,0,0,1-2.16-2.38,8.51,8.51,0,0,1,0-7,5.71,5.71,0,0,1,2.17-2.39,6.24,6.24,0,0,1,3.32-.86,6.49,6.49,0,0,1,2.82.59,5,5,0,0,1,2,1.64,5,5,0,0,1,.83,2.48h-3a2.82,2.82,0,0,0-.85-1.58,2.49,2.49,0,0,0-1.78-.64,2.77,2.77,0,0,0-1.66.51,3.32,3.32,0,0,0-1.12,1.45,6,6,0,0,0-.39,2.27,6.12,6.12,0,0,0,.39,2.3,3.29,3.29,0,0,0,1.1,1.47,2.77,2.77,0,0,0,1.68.52,2.84,2.84,0,0,0,1.22-.26,2.46,2.46,0,0,0,.91-.76,3,3,0,0,0,.5-1.2h3a5.07,5.07,0,0,1-.82,2.46,4.81,4.81,0,0,1-1.92,1.67A6.45,6.45,0,0,1,338.55,138Z" transform="translate(-9.38 -27.27)"/><path d="M352.38,138a6.66,6.66,0,0,1-3.4-.82,5.59,5.59,0,0,1-2.2-2.34,8.64,8.64,0,0,1,0-7.11,5.75,5.75,0,0,1,2.16-2.39,6.1,6.1,0,0,1,3.26-.86,6.68,6.68,0,0,1,2.29.39,5.24,5.24,0,0,1,1.91,1.2,5.74,5.74,0,0,1,1.31,2.06,8.26,8.26,0,0,1,.48,3V132H347.47V130h7.77a3.42,3.42,0,0,0-.38-1.59,2.82,2.82,0,0,0-1.05-1.09,2.91,2.91,0,0,0-1.55-.4,3.07,3.07,0,0,0-1.67.45,3.36,3.36,0,0,0-1.11,1.2,3.4,3.4,0,0,0-.4,1.61V132a4.32,4.32,0,0,0,.41,2,3,3,0,0,0,1.17,1.25,3.45,3.45,0,0,0,1.76.43,3.9,3.9,0,0,0,1.22-.19,2.64,2.64,0,0,0,.94-.57,2.39,2.39,0,0,0,.61-.93l2.88.32a4.47,4.47,0,0,1-1,2,5,5,0,0,1-1.95,1.31A7.31,7.31,0,0,1,352.38,138Z" transform="translate(-9.38 -27.27)"/><path d="M371,128.1l-2.81.3a2.29,2.29,0,0,0-.42-.8,2,2,0,0,0-.78-.6,2.78,2.78,0,0,0-1.21-.23,3,3,0,0,0-1.62.41,1.23,1.23,0,0,0-.64,1.09,1.11,1.11,0,0,0,.42.93,3.61,3.61,0,0,0,1.43.58l2.23.48a5.72,5.72,0,0,1,2.77,1.27,3,3,0,0,1,.91,2.28,3.46,3.46,0,0,1-.72,2.17,4.6,4.6,0,0,1-2,1.47,7.32,7.32,0,0,1-2.9.53,6.66,6.66,0,0,1-3.87-1,4,4,0,0,1-1.75-2.81l3-.29a2.13,2.13,0,0,0,.87,1.33,3,3,0,0,0,1.73.46,3.12,3.12,0,0,0,1.77-.46,1.31,1.31,0,0,0,.67-1.11,1.15,1.15,0,0,0-.43-.93,3,3,0,0,0-1.33-.56l-2.24-.47a5.29,5.29,0,0,1-2.78-1.33,3.18,3.18,0,0,1-.9-2.36,3.29,3.29,0,0,1,.66-2.1A4.23,4.23,0,0,1,363,125a7.19,7.19,0,0,1,2.76-.5,5.93,5.93,0,0,1,3.63,1A4.11,4.11,0,0,1,371,128.1Z" transform="translate(-9.38 -27.27)"/></g></g></g></svg>