<svg xmlns="http://www.w3.org/2000/svg" viewBox="0 0 890.1 149.72"><defs><style>.cls-1{isolation:isolate;}.cls-2{fill:#d0d5e6;}</style></defs><title>Selected New</title><g id="Layer_2" data-name="Layer 2"><g id="Layer_1-2" data-name="Layer 1"><g class="cls-1"><path class="cls-2" d="M87.78,72.73q-.57-7.11-5.29-11.08t-14.31-4a28.79,28.79,0,0,0-10,1.46,12.2,12.2,0,0,0-5.71,3.94,9.55,9.55,0,0,0-1.92,5.68,8.8,8.8,0,0,0,1,4.72A10.72,10.72,0,0,0,55,77.24a26.56,26.56,0,0,0,6.18,3,64.73,64.73,0,0,0,9,2.42L82.1,85.23A89.71,89.71,0,0,1,102.77,92a49.71,49.71,0,0,1,14.06,9.84,35.9,35.9,0,0,1,8.06,12.68,45.18,45.18,0,0,1,2.67,15.34q-.07,14.34-7.18,24.29t-20.27,15.13q-13.19,5.17-31.65,5.18-19,0-33.06-5.61a45.78,45.78,0,0,1-21.87-17.29q-7.78-11.68-7.85-29.94h37.5a22.26,22.26,0,0,0,3.34,11.22,18.53,18.53,0,0,0,8.42,6.89,32.62,32.62,0,0,0,13,2.34,31,31,0,0,0,10.58-1.56,14.25,14.25,0,0,0,6.46-4.33,10.16,10.16,0,0,0,2.27-6.32A9.14,9.14,0,0,0,85.05,124a18,18,0,0,0-6.85-4.55,75.71,75.71,0,0,0-12.86-3.8L50.85,112.5q-19.32-4.19-30.43-14t-11-26.88A40,40,0,0,1,16.8,47.34q7.48-10.41,20.81-16.23t30.57-5.83q17.61,0,30.47,5.9A45.9,45.9,0,0,1,118.5,47.76q7,10.7,7.07,25Z" transform="translate(-5.68 -25.28)"/><path class="cls-2" d="M190.05,174.71q-17.48,0-30.08-6.71a46.29,46.29,0,0,1-19.39-19.31q-6.78-12.62-6.78-30.23,0-16.89,6.82-29.54a48.67,48.67,0,0,1,19.25-19.67q12.42-7,29.33-7a62,62,0,0,1,22.37,3.84,47.08,47.08,0,0,1,17.12,11.12,49.54,49.54,0,0,1,10.94,17.64,67.23,67.23,0,0,1,3.83,23.37v9.09H146V105.68h61.36A15.41,15.41,0,0,0,205,97.41a16.08,16.08,0,0,0-6.18-5.61,18.62,18.62,0,0,0-8.77-2,19,19,0,0,0-8.73,2A16.46,16.46,0,0,0,175,97.37a15.37,15.37,0,0,0-2.52,8.31V129a19.52,19.52,0,0,0,2.2,9.37,15.91,15.91,0,0,0,6.32,6.46,19.73,19.73,0,0,0,9.94,2.35,23.11,23.11,0,0,0,7.43-1.14,16.49,16.49,0,0,0,5.79-3.3,13.07,13.07,0,0,0,3.55-5.22h35.79a40.58,40.58,0,0,1-8.73,19.71,45,45,0,0,1-18.22,12.92Q205.19,174.72,190.05,174.71Z" transform="translate(-5.68 -25.28)"/><path class="cls-2" d="M293.17,27.27V172.73H254V27.27Z" transform="translate(-5.68 -25.28)"/><path class="cls-2" d="M359.93,174.71q-17.48,0-30.08-6.71a46.23,46.23,0,0,1-19.39-19.31q-6.78-12.62-6.78-30.23,0-16.89,6.82-29.54a48.65,48.65,0,0,1,19.24-19.67q12.43-7,29.34-7a62.09,62.09,0,0,1,22.37,3.84,47,47,0,0,1,17.11,11.12A49.27,49.27,0,0,1,409.5,94.81a67,67,0,0,1,3.84,23.37v9.09H315.89V105.68h61.37a15.41,15.41,0,0,0-2.38-8.27,16.08,16.08,0,0,0-6.18-5.61,18.62,18.62,0,0,0-8.77-2,19,19,0,0,0-8.74,2,16.43,16.43,0,0,0-6.35,5.57,15.47,15.47,0,0,0-2.53,8.31V129a19.53,19.53,0,0,0,2.21,9.37,15.85,15.85,0,0,0,6.32,6.46,19.7,19.7,0,0,0,9.94,2.35A23.05,23.05,0,0,0,368.2,146a16.32,16.32,0,0,0,5.79-3.3,13,13,0,0,0,3.55-5.22h35.8a40.59,40.59,0,0,1-8.74,19.71,44.82,44.82,0,0,1-18.22,12.92Q375.05,174.72,359.93,174.71Z" transform="translate(-5.68 -25.28)"/><path class="cls-2" d="M476.4,174.71q-17.76,0-30.4-7.06a48,48,0,0,1-19.39-19.75q-6.74-12.68-6.74-29.44T426.61,89A48,48,0,0,1,446,69.28q12.64-7.07,30.4-7.07,16.05,0,27.81,5.79a43.23,43.23,0,0,1,18.21,16.34q6.47,10.55,6.54,24.75H492.59q-.78-8.59-4.93-13.1A13.88,13.88,0,0,0,477,91.48a14.3,14.3,0,0,0-9,2.94,18.91,18.91,0,0,0-6,8.88,44.52,44.52,0,0,0-2.13,14.88,44.48,44.48,0,0,0,2.13,14.88,18.91,18.91,0,0,0,6,8.88,14.31,14.31,0,0,0,9,2.95,14.5,14.5,0,0,0,7.67-2,15,15,0,0,0,5.43-6,24.15,24.15,0,0,0,2.52-9.63H529q-.23,14.42-6.61,25.11a42.79,42.79,0,0,1-18.07,16.51Q492.6,174.71,476.4,174.71Z" transform="translate(-5.68 -25.28)"/><path class="cls-2" d="M604.8,63.64V92H532.93V63.64ZM546.85,37.5h39.2V137.64a8.16,8.16,0,0,0,.79,3.8,4.85,4.85,0,0,0,2.41,2.27,10.1,10.1,0,0,0,4.19.75,23.57,23.57,0,0,0,4.16-.43c1.58-.28,2.75-.52,3.51-.71l5.68,27.56q-2.62.78-7.49,1.92a68.06,68.06,0,0,1-11.54,1.49q-13.5.71-22.66-2.81a26.65,26.65,0,0,1-13.77-11.11q-4.62-7.6-4.48-19Z" transform="translate(-5.68 -25.28)"/><path class="cls-2" d="M666.45,174.71q-17.48,0-30.08-6.71A46.23,46.23,0,0,1,617,148.69q-6.78-12.62-6.78-30.23,0-16.89,6.82-29.54a48.65,48.65,0,0,1,19.24-19.67q12.43-7,29.34-7A62.09,62.09,0,0,1,688,66.05a47.16,47.16,0,0,1,17.12,11.12A49.38,49.38,0,0,1,716,94.81a67,67,0,0,1,3.84,23.37v9.09H622.41V105.68h61.37a15.41,15.41,0,0,0-2.38-8.27,16.08,16.08,0,0,0-6.18-5.61,18.62,18.62,0,0,0-8.77-2,19,19,0,0,0-8.74,2,16.43,16.43,0,0,0-6.35,5.57,15.47,15.47,0,0,0-2.53,8.31V129a19.53,19.53,0,0,0,2.21,9.37,15.85,15.85,0,0,0,6.32,6.46,19.7,19.7,0,0,0,9.94,2.35,23.05,23.05,0,0,0,7.42-1.14,16.32,16.32,0,0,0,5.79-3.3,13,13,0,0,0,3.55-5.22h35.8a40.59,40.59,0,0,1-8.74,19.71,44.82,44.82,0,0,1-18.22,12.92Q681.58,174.72,666.45,174.71Z" transform="translate(-5.68 -25.28)"/><path class="cls-2" d="M769.85,174.15A39.62,39.62,0,0,1,748.44,168q-9.77-6.1-15.63-18.54T727,118.18q0-19.74,6.14-32.1T749,68a39.85,39.85,0,0,1,20.56-5.76A33.69,33.69,0,0,1,783.77,65,30.38,30.38,0,0,1,794,72.48a33.29,33.29,0,0,1,6.25,10.19h.57V27.27H840V172.73H801.1v-17.9h-.85a31.3,31.3,0,0,1-6.5,9.91,30.36,30.36,0,0,1-10.22,6.89A35.09,35.09,0,0,1,769.85,174.15ZM784.34,144a14.17,14.17,0,0,0,9.27-3.16,20,20,0,0,0,6-9,40.56,40.56,0,0,0,2.09-13.74,41.05,41.05,0,0,0-2.09-13.88,19.55,19.55,0,0,0-6-8.88,14.4,14.4,0,0,0-9.27-3.09,14.13,14.13,0,0,0-9.2,3.09,19.34,19.34,0,0,0-5.82,8.88,42.18,42.18,0,0,0-2,13.88,42.24,42.24,0,0,0,2,13.89,19.31,19.31,0,0,0,5.82,8.87A14.13,14.13,0,0,0,784.34,144Z" transform="translate(-5.68 -25.28)"/><path class="cls-2" d="M875.25,175a19.33,19.33,0,0,1-14.1-5.79,18.81,18.81,0,0,1-5.79-14.1,18.45,18.45,0,0,1,5.79-13.85,19.81,19.81,0,0,1,27.91,0,18.72,18.72,0,0,1,6.07,13.85,19,19,0,0,1-2.87,10,21.37,21.37,0,0,1-7.28,7.18A18.76,18.76,0,0,1,875.25,175Z" transform="translate(-5.68 -25.28)"/></g><g class="cls-1"><path d="M525.91,113.16h-3.19a4,4,0,0,0-.5-1.39,3.79,3.79,0,0,0-.91-1,3.84,3.84,0,0,0-1.24-.64,4.81,4.81,0,0,0-1.5-.22,4.56,4.56,0,0,0-2.52.71,4.76,4.76,0,0,0-1.72,2.08,8,8,0,0,0-.62,3.34,8.21,8.21,0,0,0,.62,3.37,4.65,4.65,0,0,0,1.72,2.06,4.56,4.56,0,0,0,2.51.7,5,5,0,0,0,1.48-.21,4.19,4.19,0,0,0,1.23-.62,3.6,3.6,0,0,0,.93-1,3.71,3.71,0,0,0,.52-1.36l3.19,0a6.74,6.74,0,0,1-.77,2.33,6.83,6.83,0,0,1-1.55,1.93,7,7,0,0,1-2.23,1.29,8.25,8.25,0,0,1-2.84.46,8,8,0,0,1-4.11-1.06,7.44,7.44,0,0,1-2.84-3.08,10.42,10.42,0,0,1-1-4.82,10.31,10.31,0,0,1,1.05-4.83,7.5,7.5,0,0,1,2.85-3.07,7.92,7.92,0,0,1,4.09-1.07,8.75,8.75,0,0,1,2.71.41,6.76,6.76,0,0,1,2.23,1.2,6.44,6.44,0,0,1,1.62,1.93A7.24,7.24,0,0,1,525.91,113.16Z" transform="translate(-5.68 -25.28)"/><path d="M532.33,125a5.37,5.37,0,0,1-2.24-.45,3.62,3.62,0,0,1-1.57-1.32,3.92,3.92,0,0,1-.57-2.17,3.59,3.59,0,0,1,.41-1.83,3.17,3.17,0,0,1,1.11-1.16,5.86,5.86,0,0,1,1.6-.66,13.74,13.74,0,0,1,1.85-.33l1.86-.21a2.8,2.8,0,0,0,1.05-.31.74.74,0,0,0,.33-.65v-.05a2,2,0,0,0-.58-1.5,2.32,2.32,0,0,0-1.64-.52,3,3,0,0,0-1.8.49,2.56,2.56,0,0,0-.89,1.17l-2.88-.41a4.69,4.69,0,0,1,1.13-2,4.88,4.88,0,0,1,1.92-1.21,7.36,7.36,0,0,1,2.5-.41,8.14,8.14,0,0,1,1.89.23,5.2,5.2,0,0,1,1.71.73,3.68,3.68,0,0,1,1.25,1.37,4.58,4.58,0,0,1,.47,2.17v8.77h-3v-1.8h-.1a3.9,3.9,0,0,1-.79,1,4,4,0,0,1-1.27.76A5,5,0,0,1,532.33,125Zm.8-2.27a3.27,3.27,0,0,0,1.61-.37,2.56,2.56,0,0,0,1-1,2.53,2.53,0,0,0,.37-1.34v-1.54a1.42,1.42,0,0,1-.49.22,6.28,6.28,0,0,1-.77.18c-.28,0-.56.1-.84.13l-.73.11a5.28,5.28,0,0,0-1.23.3,2,2,0,0,0-.86.6,1.45,1.45,0,0,0-.32,1,1.48,1.48,0,0,0,.62,1.29A2.73,2.73,0,0,0,533.13,122.72Z" transform="translate(-5.68 -25.28)"/><path d="M552.58,115.1l-2.82.3a2.1,2.1,0,0,0-.41-.8,2,2,0,0,0-.79-.6,2.75,2.75,0,0,0-1.21-.23,3,3,0,0,0-1.61.41,1.24,1.24,0,0,0-.65,1.09,1.15,1.15,0,0,0,.43.93,3.56,3.56,0,0,0,1.42.58l2.24.48a5.64,5.64,0,0,1,2.76,1.27,3,3,0,0,1,.92,2.28,3.58,3.58,0,0,1-.72,2.17,4.66,4.66,0,0,1-2,1.47,7.35,7.35,0,0,1-2.9.53,6.66,6.66,0,0,1-3.87-1,4,4,0,0,1-1.75-2.81l3-.29a2.13,2.13,0,0,0,.87,1.33,3,3,0,0,0,1.73.46,3.14,3.14,0,0,0,1.77-.46,1.33,1.33,0,0,0,.67-1.11,1.18,1.18,0,0,0-.43-.93,3,3,0,0,0-1.34-.56l-2.23-.47a5.29,5.29,0,0,1-2.79-1.33,3.21,3.21,0,0,1-.89-2.36,3.29,3.29,0,0,1,.66-2.1,4.2,4.2,0,0,1,1.86-1.38,7.21,7.21,0,0,1,2.77-.5,6,6,0,0,1,3.63,1A4.11,4.11,0,0,1,552.58,115.1Z" transform="translate(-5.68 -25.28)"/><path d="M561.08,125a6.65,6.65,0,0,1-3.39-.82,5.47,5.47,0,0,1-2.2-2.34,8.54,8.54,0,0,1,0-7.11,5.75,5.75,0,0,1,2.16-2.39,6.07,6.07,0,0,1,3.26-.86,6.68,6.68,0,0,1,2.29.39,5.32,5.32,0,0,1,1.91,1.2,5.74,5.74,0,0,1,1.31,2.06,8.49,8.49,0,0,1,.47,3V119H556.17V117H564a3.43,3.43,0,0,0-.39-1.59,2.87,2.87,0,0,0-1-1.09,3,3,0,0,0-1.56-.4,3.06,3.06,0,0,0-1.66.45,3.19,3.19,0,0,0-1.11,1.2,3.41,3.41,0,0,0-.41,1.61V119a4.19,4.19,0,0,0,.42,2,3,3,0,0,0,1.17,1.25,3.44,3.44,0,0,0,1.75.43,3.86,3.86,0,0,0,1.22-.19,2.68,2.68,0,0,0,.95-.57,2.27,2.27,0,0,0,.6-.93l2.89.32a4.57,4.57,0,0,1-1,2,5.12,5.12,0,0,1-2,1.31A7.37,7.37,0,0,1,561.08,125Z" transform="translate(-5.68 -25.28)"/><path d="M585.57,115.1l-2.81.3a2.43,2.43,0,0,0-.41-.8,2.1,2.1,0,0,0-.79-.6,2.75,2.75,0,0,0-1.21-.23,3,3,0,0,0-1.61.41,1.24,1.24,0,0,0-.65,1.09,1.17,1.17,0,0,0,.42.93,3.68,3.68,0,0,0,1.43.58l2.23.48a5.72,5.72,0,0,1,2.77,1.27,3.08,3.08,0,0,1,.92,2.28,3.58,3.58,0,0,1-.72,2.17,4.69,4.69,0,0,1-2,1.47,7.27,7.27,0,0,1-2.89.53,6.62,6.62,0,0,1-3.87-1,4,4,0,0,1-1.75-2.81l3-.29a2.05,2.05,0,0,0,.87,1.33,3,3,0,0,0,1.73.46,3.14,3.14,0,0,0,1.77-.46,1.32,1.32,0,0,0,.66-1.11,1.15,1.15,0,0,0-.43-.93,3,3,0,0,0-1.33-.56l-2.23-.47a5.29,5.29,0,0,1-2.79-1.33,3.21,3.21,0,0,1-.89-2.36,3.29,3.29,0,0,1,.66-2.1,4.15,4.15,0,0,1,1.86-1.38,7.21,7.21,0,0,1,2.77-.5,5.92,5.92,0,0,1,3.62,1A4,4,0,0,1,585.57,115.1Z" transform="translate(-5.68 -25.28)"/><path d="M594.82,111.64V114H587.3v-2.38Zm-5.67-3.14h3.09v12.29a1.9,1.9,0,0,0,.19.95,1,1,0,0,0,.51.45,1.94,1.94,0,0,0,.7.12,2.89,2.89,0,0,0,.53,0,3.1,3.1,0,0,0,.37-.07l.52,2.41a7.07,7.07,0,0,1-.7.19,7.84,7.84,0,0,1-1.12.12,5,5,0,0,1-2.08-.36,3.22,3.22,0,0,1-1.47-1.2,3.66,3.66,0,0,1-.54-2Z" transform="translate(-5.68 -25.28)"/><path d="M605.63,119.22v-7.58h3.08v13.09h-3V122.4h-.14a4,4,0,0,1-1.45,1.8,4.29,4.29,0,0,1-2.48.7,4.33,4.33,0,0,1-2.27-.58,3.87,3.87,0,0,1-1.54-1.68,5.86,5.86,0,0,1-.56-2.67v-8.33h3.09v7.85a2.82,2.82,0,0,0,.68,2,2.32,2.32,0,0,0,1.79.73,2.84,2.84,0,0,0,1.32-.33,2.62,2.62,0,0,0,1.05-1A3,3,0,0,0,605.63,119.22Z" transform="translate(-5.68 -25.28)"/><path d="M616.62,125a4.93,4.93,0,0,1-2.76-.8,5.32,5.32,0,0,1-1.93-2.3,8.57,8.57,0,0,1-.7-3.66,8.35,8.35,0,0,1,.72-3.69,5.32,5.32,0,0,1,1.94-2.27,5,5,0,0,1,2.74-.78,4,4,0,0,1,1.89.39,3.64,3.64,0,0,1,1.18.93,5.72,5.72,0,0,1,.67,1h.13v-6.53h3.09v17.46h-3v-2.07h-.19a5.05,5.05,0,0,1-.69,1,3.72,3.72,0,0,1-1.19.91A4.15,4.15,0,0,1,616.62,125Zm.86-2.53a2.63,2.63,0,0,0,1.67-.54,3.27,3.27,0,0,0,1.05-1.48,6.32,6.32,0,0,0,.36-2.23,6.17,6.17,0,0,0-.36-2.21,3.09,3.09,0,0,0-1-1.45,2.65,2.65,0,0,0-1.68-.52,2.75,2.75,0,0,0-1.72.53,3.27,3.27,0,0,0-1,1.49,6.27,6.27,0,0,0-.35,2.16,6.45,6.45,0,0,0,.35,2.19,3.43,3.43,0,0,0,1,1.51A2.72,2.72,0,0,0,617.48,122.43Z" transform="translate(-5.68 -25.28)"/><path d="M628.31,109.78a1.75,1.75,0,0,1-1.25-.5,1.58,1.58,0,0,1,0-2.36,1.86,1.86,0,0,1,2.52,0,1.58,1.58,0,0,1,.52,1.19,1.56,1.56,0,0,1-.52,1.18A1.82,1.82,0,0,1,628.31,109.78Zm-1.54,15V111.64h3.09v13.09Z" transform="translate(-5.68 -25.28)"/><path d="M638.7,125a6.71,6.71,0,0,1-3.4-.82,5.51,5.51,0,0,1-2.19-2.34,8.54,8.54,0,0,1,0-7.11,5.75,5.75,0,0,1,2.16-2.39,6.07,6.07,0,0,1,3.26-.86,6.68,6.68,0,0,1,2.29.39,5.32,5.32,0,0,1,1.91,1.2,5.59,5.59,0,0,1,1.3,2.06,8.26,8.26,0,0,1,.48,3V119H633.79V117h7.77a3.31,3.31,0,0,0-.38-1.59,2.87,2.87,0,0,0-1-1.09,3,3,0,0,0-1.56-.4,3.06,3.06,0,0,0-1.66.45,3.19,3.19,0,0,0-1.11,1.2,3.41,3.41,0,0,0-.41,1.61V119a4.19,4.19,0,0,0,.42,2,3,3,0,0,0,1.17,1.25,3.41,3.41,0,0,0,1.75.43,3.86,3.86,0,0,0,1.22-.19,2.68,2.68,0,0,0,.95-.57,2.27,2.27,0,0,0,.6-.93l2.88.32a4.45,4.45,0,0,1-1,2,5.12,5.12,0,0,1-2,1.31A7.37,7.37,0,0,1,638.7,125Z" transform="translate(-5.68 -25.28)"/><path d="M657.36,115.1l-2.82.3a2.26,2.26,0,0,0-.41-.8,2,2,0,0,0-.79-.6,2.75,2.75,0,0,0-1.21-.23,3,3,0,0,0-1.61.41,1.24,1.24,0,0,0-.65,1.09,1.15,1.15,0,0,0,.43.93,3.56,3.56,0,0,0,1.42.58l2.24.48a5.64,5.64,0,0,1,2.76,1.27,3,3,0,0,1,.92,2.28,3.58,3.58,0,0,1-.72,2.17,4.66,4.66,0,0,1-2,1.47,7.35,7.35,0,0,1-2.9.53,6.66,6.66,0,0,1-3.87-1,4,4,0,0,1-1.75-2.81l3-.29a2.13,2.13,0,0,0,.87,1.33,3,3,0,0,0,1.73.46,3.14,3.14,0,0,0,1.77-.46,1.33,1.33,0,0,0,.67-1.11,1.18,1.18,0,0,0-.43-.93,3.05,3.05,0,0,0-1.34-.56l-2.23-.47a5.29,5.29,0,0,1-2.79-1.33,3.21,3.21,0,0,1-.89-2.36,3.29,3.29,0,0,1,.66-2.1,4.2,4.2,0,0,1,1.86-1.38,7.21,7.21,0,0,1,2.77-.5,6,6,0,0,1,3.63,1A4.11,4.11,0,0,1,657.36,115.1Z" transform="translate(-5.68 -25.28)"/><path d="M671.61,125a6.37,6.37,0,0,1-3.32-.84,5.72,5.72,0,0,1-2.18-2.36,8.57,8.57,0,0,1,0-7.1,5.69,5.69,0,0,1,2.18-2.37,6.93,6.93,0,0,1,6.65,0,5.69,5.69,0,0,1,2.18,2.37,8.57,8.57,0,0,1,0,7.1,5.72,5.72,0,0,1-2.18,2.36A6.39,6.39,0,0,1,671.61,125Zm0-2.47a2.68,2.68,0,0,0,1.74-.57,3.44,3.44,0,0,0,1-1.55,6.9,6.9,0,0,0,0-4.34,3.47,3.47,0,0,0-1-1.56,2.63,2.63,0,0,0-1.74-.58,2.68,2.68,0,0,0-1.77.58,3.48,3.48,0,0,0-1.05,1.56,7.09,7.09,0,0,0,0,4.34,3.45,3.45,0,0,0,1.05,1.55A2.72,2.72,0,0,0,671.63,122.51Z" transform="translate(-5.68 -25.28)"/><path d="M687,111.64V114h-7.73v-2.38Zm-5.8,13.09V110.4a4.06,4.06,0,0,1,.55-2.2,3.47,3.47,0,0,1,1.48-1.31,4.82,4.82,0,0,1,2.06-.44,7.39,7.39,0,0,1,1.42.13,8.9,8.9,0,0,1,.93.23L687,109.2l-.49-.13a3.4,3.4,0,0,0-.67-.06,1.53,1.53,0,0,0-1.21.41,1.75,1.75,0,0,0-.36,1.18v14.13Z" transform="translate(-5.68 -25.28)"/><path d="M695.14,129.64v-18h3v2.16h.18a5.22,5.22,0,0,1,.67-1,3.64,3.64,0,0,1,1.18-.93,4,4,0,0,1,1.89-.39,5,5,0,0,1,2.74.78,5.32,5.32,0,0,1,1.94,2.27,9.8,9.8,0,0,1,0,7.35,5.3,5.3,0,0,1-1.92,2.3,5,5,0,0,1-2.76.8,4.12,4.12,0,0,1-1.87-.38,3.61,3.61,0,0,1-1.19-.91,5.05,5.05,0,0,1-.69-1h-.13v7Zm3-11.46a6.32,6.32,0,0,0,.36,2.23,3.27,3.27,0,0,0,1.05,1.48,2.61,2.61,0,0,0,1.66.54,2.7,2.7,0,0,0,1.72-.55,3.33,3.33,0,0,0,1-1.51,6.21,6.21,0,0,0,.36-2.19A6.27,6.27,0,0,0,704,116a3.34,3.34,0,0,0-1-1.49,2.78,2.78,0,0,0-1.73-.53,2.68,2.68,0,0,0-1.67.52,3.18,3.18,0,0,0-1.05,1.45A6.41,6.41,0,0,0,698.17,118.18Z" transform="translate(-5.68 -25.28)"/><path d="M710,124.73V111.64h3v2.18h.14a3.27,3.27,0,0,1,1.23-1.75,3.34,3.34,0,0,1,2-.62l.58,0a3.39,3.39,0,0,1,.53.06v2.84a4.53,4.53,0,0,0-.62-.12,5.73,5.73,0,0,0-.81-.06,3.09,3.09,0,0,0-1.51.36,2.78,2.78,0,0,0-1.06,1,2.82,2.82,0,0,0-.38,1.47v7.7Z" transform="translate(-5.68 -25.28)"/><path d="M724.58,125a6.39,6.39,0,0,1-3.33-.84,5.7,5.7,0,0,1-2.17-2.36,8.57,8.57,0,0,1,0-7.1,5.66,5.66,0,0,1,2.17-2.37,6.93,6.93,0,0,1,6.65,0,5.62,5.62,0,0,1,2.18,2.37,8.57,8.57,0,0,1,0,7.1,5.65,5.65,0,0,1-2.18,2.36A6.35,6.35,0,0,1,724.58,125Zm0-2.47a2.63,2.63,0,0,0,1.73-.57,3.45,3.45,0,0,0,1-1.55,7.09,7.09,0,0,0,0-4.34,3.48,3.48,0,0,0-1-1.56,2.59,2.59,0,0,0-1.73-.58,2.64,2.64,0,0,0-1.77.58,3.48,3.48,0,0,0-1.05,1.56,6.9,6.9,0,0,0,0,4.34,3.45,3.45,0,0,0,1.05,1.55A2.69,2.69,0,0,0,724.6,122.51Z" transform="translate(-5.68 -25.28)"/><path d="M733.34,111.64h3.08v13.81a4.75,4.75,0,0,1-.53,2.35,3.26,3.26,0,0,1-1.57,1.38,5.7,5.7,0,0,1-2.49.43h-.59v-2.51h.44a1.67,1.67,0,0,0,1.28-.43,1.88,1.88,0,0,0,.38-1.26Zm1.52-1.86a1.77,1.77,0,0,1-1.25-.5,1.58,1.58,0,0,1,0-2.36,1.86,1.86,0,0,1,2.52,0,1.58,1.58,0,0,1,.52,1.19,1.56,1.56,0,0,1-.52,1.18A1.82,1.82,0,0,1,734.86,109.78Z" transform="translate(-5.68 -25.28)"/><path d="M745.27,125a6.69,6.69,0,0,1-3.4-.82,5.51,5.51,0,0,1-2.19-2.34,8.59,8.59,0,0,1,0-7.11,5.89,5.89,0,0,1,2.16-2.39,6.13,6.13,0,0,1,3.27-.86,6.72,6.72,0,0,1,2.29.39,5.29,5.29,0,0,1,1.9,1.2,5.61,5.61,0,0,1,1.31,2.06,8.26,8.26,0,0,1,.48,3V119H740.36V117h7.77a3.31,3.31,0,0,0-.38-1.59,2.87,2.87,0,0,0-1-1.09,3,3,0,0,0-1.56-.4,3,3,0,0,0-1.66.45,3.19,3.19,0,0,0-1.11,1.2,3.41,3.41,0,0,0-.41,1.61V119a4.19,4.19,0,0,0,.42,2,3,3,0,0,0,1.17,1.25,3.41,3.41,0,0,0,1.75.43,3.86,3.86,0,0,0,1.22-.19,2.77,2.77,0,0,0,1-.57,2.37,2.37,0,0,0,.6-.93l2.88.32a4.45,4.45,0,0,1-1,2,5.12,5.12,0,0,1-1.95,1.31A7.37,7.37,0,0,1,745.27,125Z" transform="translate(-5.68 -25.28)"/><path d="M759.29,125a6.22,6.22,0,0,1-3.36-.86,5.66,5.66,0,0,1-2.16-2.38,8.56,8.56,0,0,1,0-7,5.78,5.78,0,0,1,2.17-2.39,6.26,6.26,0,0,1,3.32-.86,6.54,6.54,0,0,1,2.83.59,4.78,4.78,0,0,1,2.8,4.12H762a2.82,2.82,0,0,0-.85-1.58,2.51,2.51,0,0,0-1.79-.64,2.79,2.79,0,0,0-1.66.51,3.23,3.23,0,0,0-1.11,1.45,6.73,6.73,0,0,0,0,4.57,3.29,3.29,0,0,0,1.1,1.47,2.72,2.72,0,0,0,1.67.52,2.85,2.85,0,0,0,1.23-.26,2.46,2.46,0,0,0,.91-.76,3,3,0,0,0,.5-1.2h2.95a5.18,5.18,0,0,1-.82,2.46,4.84,4.84,0,0,1-1.93,1.67A6.41,6.41,0,0,1,759.29,125Z" transform="translate(-5.68 -25.28)"/><path d="M773.85,111.64V114h-7.52v-2.38Zm-5.66-3.14h3.08v12.29a1.9,1.9,0,0,0,.19.95,1,1,0,0,0,.51.45,1.94,1.94,0,0,0,.7.12,2.89,2.89,0,0,0,.53,0,3.1,3.1,0,0,0,.37-.07l.52,2.41a6.36,6.36,0,0,1-.7.19,7.85,7.85,0,0,1-1.11.12,5,5,0,0,1-2.09-.36,3.22,3.22,0,0,1-1.47-1.2,3.58,3.58,0,0,1-.53-2Z" transform="translate(-5.68 -25.28)"/><path d="M786.46,115.1l-2.81.3a2.26,2.26,0,0,0-.41-.8,2.1,2.1,0,0,0-.79-.6,2.75,2.75,0,0,0-1.21-.23,3,3,0,0,0-1.61.41,1.24,1.24,0,0,0-.65,1.09,1.17,1.17,0,0,0,.42.93,3.68,3.68,0,0,0,1.43.58l2.23.48a5.68,5.68,0,0,1,2.77,1.27,3,3,0,0,1,.92,2.28A3.58,3.58,0,0,1,786,123a4.69,4.69,0,0,1-2,1.47,7.27,7.27,0,0,1-2.89.53,6.62,6.62,0,0,1-3.87-1,4,4,0,0,1-1.75-2.81l3-.29a2.05,2.05,0,0,0,.87,1.33,3,3,0,0,0,1.73.46,3.14,3.14,0,0,0,1.77-.46,1.32,1.32,0,0,0,.66-1.11,1.15,1.15,0,0,0-.43-.93,3,3,0,0,0-1.33-.56l-2.23-.47a5.29,5.29,0,0,1-2.79-1.33,3.21,3.21,0,0,1-.89-2.36,3.29,3.29,0,0,1,.66-2.1,4.15,4.15,0,0,1,1.86-1.38,7.21,7.21,0,0,1,2.77-.5,5.92,5.92,0,0,1,3.62,1A4,4,0,0,1,786.46,115.1Z" transform="translate(-5.68 -25.28)"/><path d="M798.31,107.27v17.46h-3.16V107.27Z" transform="translate(-5.68 -25.28)"/><path d="M804.11,107.27V109a4.7,4.7,0,0,1-.29,1.56,6.91,6.91,0,0,1-.78,1.53,5.88,5.88,0,0,1-1.12,1.25l-1.44-.93a8.6,8.6,0,0,0,.82-1.53,4.6,4.6,0,0,0,.35-1.86v-1.76Z" transform="translate(-5.68 -25.28)"/><path d="M818.67,111.64,814,124.73H810.6l-4.66-13.09h3.29l3,9.72h.14l3-9.72Z" transform="translate(-5.68 -25.28)"/><path d="M826,125a6.65,6.65,0,0,1-3.39-.82,5.59,5.59,0,0,1-2.2-2.34,8.64,8.64,0,0,1,0-7.11,5.75,5.75,0,0,1,2.16-2.39,6.07,6.07,0,0,1,3.26-.86,6.68,6.68,0,0,1,2.29.39,5.24,5.24,0,0,1,1.91,1.2,5.74,5.74,0,0,1,1.31,2.06,8.26,8.26,0,0,1,.48,3V119H821.12V117h7.77a3.43,3.43,0,0,0-.39-1.59,2.79,2.79,0,0,0-1-1.09,3,3,0,0,0-1.56-.4,3.06,3.06,0,0,0-1.66.45,3.27,3.27,0,0,0-1.11,1.2,3.4,3.4,0,0,0-.4,1.61V119a4.32,4.32,0,0,0,.41,2,3,3,0,0,0,1.17,1.25,3.45,3.45,0,0,0,1.76.43,3.9,3.9,0,0,0,1.22-.19,2.73,2.73,0,0,0,.94-.57,2.39,2.39,0,0,0,.61-.93l2.88.32a4.47,4.47,0,0,1-1,2,5.12,5.12,0,0,1-1.95,1.31A7.33,7.33,0,0,1,826,125Z" transform="translate(-5.68 -25.28)"/><path d="M845,125a4.93,4.93,0,0,1-2.76-.8,5.26,5.26,0,0,1-1.93-2.3,9.8,9.8,0,0,1,0-7.35,5.27,5.27,0,0,1,1.95-2.27,5,5,0,0,1,2.74-.78,4.07,4.07,0,0,1,1.89.39,3.87,3.87,0,0,1,1.18.93,6.33,6.33,0,0,1,.67,1h.13v-6.53H852v17.46h-3v-2.07h-.19a5.05,5.05,0,0,1-.69,1,3.66,3.66,0,0,1-1.2.91A4.08,4.08,0,0,1,845,125Zm.86-2.53a2.63,2.63,0,0,0,1.67-.54,3.27,3.27,0,0,0,1.05-1.48,6.32,6.32,0,0,0,.36-2.23,6.17,6.17,0,0,0-.36-2.21,3.09,3.09,0,0,0-1-1.45,2.67,2.67,0,0,0-1.68-.52,2.75,2.75,0,0,0-1.72.53,3.27,3.27,0,0,0-1,1.49,6,6,0,0,0-.35,2.16,6.45,6.45,0,0,0,.35,2.19,3.43,3.43,0,0,0,1,1.51A2.7,2.7,0,0,0,845.89,122.43Z" transform="translate(-5.68 -25.28)"/><path d="M860.89,125a6.39,6.39,0,0,1-3.33-.84,5.7,5.7,0,0,1-2.17-2.36,8.57,8.57,0,0,1,0-7.1,5.66,5.66,0,0,1,2.17-2.37,6.93,6.93,0,0,1,6.65,0,5.62,5.62,0,0,1,2.18,2.37,8.57,8.57,0,0,1,0,7.1,5.65,5.65,0,0,1-2.18,2.36A6.35,6.35,0,0,1,860.89,125Zm0-2.47a2.63,2.63,0,0,0,1.73-.57,3.45,3.45,0,0,0,1.05-1.55,7.09,7.09,0,0,0,0-4.34,3.48,3.48,0,0,0-1.05-1.56,2.59,2.59,0,0,0-1.73-.58,2.68,2.68,0,0,0-1.77.58,3.48,3.48,0,0,0-1,1.56,6.9,6.9,0,0,0,0,4.34,3.45,3.45,0,0,0,1,1.55A2.72,2.72,0,0,0,860.91,122.51Z" transform="translate(-5.68 -25.28)"/><path d="M872.73,117.06v7.67h-3.08V111.64h3v2.22h.15a3.7,3.7,0,0,1,1.45-1.75,4.41,4.41,0,0,1,2.45-.65A4.73,4.73,0,0,1,879,112a4.05,4.05,0,0,1,1.57,1.68,5.92,5.92,0,0,1,.55,2.67v8.34h-3.09v-7.86a3,3,0,0,0-.67-2.06,2.45,2.45,0,0,0-1.88-.74,2.81,2.81,0,0,0-1.43.36,2.36,2.36,0,0,0-1,1A3.33,3.33,0,0,0,872.73,117.06Z" transform="translate(-5.68 -25.28)"/><path d="M890,125a6.66,6.66,0,0,1-3.4-.82,5.51,5.51,0,0,1-2.19-2.34,8.59,8.59,0,0,1,0-7.11,5.82,5.82,0,0,1,2.16-2.39,6.1,6.1,0,0,1,3.26-.86,6.64,6.64,0,0,1,2.29.39,5.24,5.24,0,0,1,1.91,1.2,5.61,5.61,0,0,1,1.31,2.06,8.26,8.26,0,0,1,.48,3V119H885.05V117h7.77a3.31,3.31,0,0,0-.38-1.59,2.82,2.82,0,0,0-1.05-1.09,2.91,2.91,0,0,0-1.55-.4,3,3,0,0,0-1.66.45,3.3,3.3,0,0,0-1.12,1.2,3.4,3.4,0,0,0-.4,1.61V119a4.19,4.19,0,0,0,.42,2,2.93,2.93,0,0,0,1.16,1.25,3.45,3.45,0,0,0,1.76.43,3.86,3.86,0,0,0,1.22-.19,2.64,2.64,0,0,0,.94-.57,2.39,2.39,0,0,0,.61-.93l2.88.32a4.56,4.56,0,0,1-1,2,5.12,5.12,0,0,1-2,1.31A7.4,7.4,0,0,1,890,125Z" transform="translate(-5.68 -25.28)"/></g></g></g></svg>