<svg xmlns="http://www.w3.org/2000/svg" viewBox="0 0 1913.78 258.16"><defs><style>.cls-1{isolation:isolate;}.cls-2{fill:#d0d5e6;}</style></defs><title>Title One Line_1</title><g id="Layer_2" data-name="Layer 2"><g id="Layer_1-2" data-name="Layer 1"><g class="cls-1"><g class="cls-1"><path class="cls-2" d="M11.11,204.68V32.32H57.9V99.65h62V32.32h46.79V204.68H119.85V137.35H57.9v67.33Z" transform="translate(-11.11 -19.52)"/><path class="cls-2" d="M182.66,204.68V75.41h46.46V204.68ZM205.89,61.94a22.92,22.92,0,0,1-16.16-6.23,20,20,0,0,1,0-30,24.13,24.13,0,0,1,32.36,0,20.12,20.12,0,0,1,0,30A22.89,22.89,0,0,1,205.89,61.94Z" transform="translate(-11.11 -19.52)"/><path class="cls-2" d="M290.92,181.12l-.68,9.42a113.81,113.81,0,0,1-4,23.23,194.17,194.17,0,0,1-6.65,19.69q-3.5,8.59-5.52,13.3H245.47q1.35-4.71,3.83-13.59t4.54-20a123.63,123.63,0,0,0,2.07-22.6v-9.42Z" transform="translate(-11.11 -19.52)"/><path class="cls-2" d="M400.72,32.32V204.68h-46.8V32.32Z" transform="translate(-11.11 -19.52)"/><path class="cls-2" d="M455.11,32.32v20.2A43.61,43.61,0,0,1,451.79,69a72.05,72.05,0,0,1-8.42,15.23,70.37,70.37,0,0,1-10.48,11.74L413.7,86.18A80.31,80.31,0,0,0,420,72.13q2.78-8,2.77-19.61V32.32Z" transform="translate(-11.11 -19.52)"/><path class="cls-2" d="M465.74,204.68V75.41h44.1V100h1.35A37.72,37.72,0,0,1,525,80.79q9.76-7.07,23.23-7.07,13.63,0,23.48,7.2A28.8,28.8,0,0,1,583.57,100h1.35a33,33,0,0,1,14-19.06q10.68-7.2,25.08-7.2,18.6,0,30.17,12t11.57,31.81v87.19H619.25V129.27q0-8.49-4.29-13.34a14.65,14.65,0,0,0-11.53-4.84q-7.15,0-11.32,4.84T588,129.27v75.41H543.51V129.27q0-8.49-4.29-13.34a14.67,14.67,0,0,0-11.53-4.84,15.07,15.07,0,0,0-8.25,2.19,14.43,14.43,0,0,0-5.35,6.27,23,23,0,0,0-1.89,9.72v75.41Z" transform="translate(-11.11 -19.52)"/><path class="cls-2" d="M766.09,204.68h-50.5L772.48,32.32h64l56.89,172.36h-50.5l-37.7-124.9h-1.35Zm-9.43-68h94.93v35H756.66Z" transform="translate(-11.11 -19.52)"/><path class="cls-2" d="M950.09,132v72.72H903.63V75.41h44.1V100h1.35a36.57,36.57,0,0,1,14.85-19.27q10.65-7,24.87-7,13.73,0,23.86,6.28a42.51,42.51,0,0,1,15.74,17.21,53.45,53.45,0,0,1,5.52,25v82.48H987.46V132q.07-9.59-4.84-15.06t-13.68-5.47a19.46,19.46,0,0,0-10,2.48,16.36,16.36,0,0,0-6.52,7.07A25.12,25.12,0,0,0,950.09,132Z" transform="translate(-11.11 -19.52)"/><path class="cls-2" d="M1096.39,132v72.72h-46.46V75.41H1094V100h1.35a36.59,36.59,0,0,1,14.86-19.27q10.63-7,24.86-7,13.73,0,23.86,6.28a42.44,42.44,0,0,1,15.74,17.21,53.45,53.45,0,0,1,5.52,25v82.48h-46.46V132q.08-9.59-4.84-15.06t-13.68-5.47a19.46,19.46,0,0,0-10,2.48,16.42,16.42,0,0,0-6.52,7.07A25.27,25.27,0,0,0,1096.39,132Z" transform="translate(-11.11 -19.52)"/><path class="cls-2" d="M1232.25,206.7a54.82,54.82,0,0,1-21.84-4.08,32.61,32.61,0,0,1-14.85-12.41q-5.38-8.34-5.39-21.21,0-10.6,3.62-18.14a32.68,32.68,0,0,1,10.1-12.33,47.52,47.52,0,0,1,15.11-7.32,90.4,90.4,0,0,1,18.64-3.29,169.15,169.15,0,0,0,17.46-2.06q6.62-1.22,9.56-3.45a7.06,7.06,0,0,0,2.94-5.93v-.34a8.87,8.87,0,0,0-3.87-7.74,17,17,0,0,0-9.93-2.69q-6.65,0-10.82,2.9t-5,8.88h-42.76a44,44,0,0,1,7.54-21.76q6.69-10,19.56-16t32.15-6A88.68,88.68,0,0,1,1279.38,77a59.24,59.24,0,0,1,18.77,9A40.29,40.29,0,0,1,1310,99.44a35.11,35.11,0,0,1,4.08,16.7v88.54h-43.43V186.5h-1a37.54,37.54,0,0,1-9.38,11.7,35.34,35.34,0,0,1-12.54,6.48A55.71,55.71,0,0,1,1232.25,206.7Zm15.15-29.29a23.24,23.24,0,0,0,10-2.19,19.1,19.1,0,0,0,7.61-6.31,16.74,16.74,0,0,0,3-10V148.12c-1.24.51-2.54,1-3.91,1.43s-2.84.87-4.38,1.27-3.17.75-4.88,1.09-3.5.65-5.35.93a26.65,26.65,0,0,0-8.79,2.73,13.12,13.12,0,0,0-5.05,4.63,11.6,11.6,0,0,0-1.64,6.1,9.73,9.73,0,0,0,3.78,8.25A15.63,15.63,0,0,0,1247.4,177.41Z" transform="translate(-11.11 -19.52)"/><path class="cls-2" d="M1328.73,204.68V32.32h46.46V98h.67a39.35,39.35,0,0,1,7.41-12.07,36,36,0,0,1,12.11-8.84,39.94,39.94,0,0,1,16.84-3.33,47.3,47.3,0,0,1,24.36,6.82q11.58,6.83,18.85,21.46t7.28,38q0,22.4-6.94,37.12t-18.52,22a46.94,46.94,0,0,1-25.37,7.23,41.52,41.52,0,0,1-16.2-3,36.24,36.24,0,0,1-12.12-8.17,36.72,36.72,0,0,1-7.7-11.74h-1v21.21ZM1374.18,140a47.79,47.79,0,0,0,2.48,16.29,23.62,23.62,0,0,0,7.07,10.6,18,18,0,0,0,21.88.09,22.92,22.92,0,0,0,6.9-10.52,50,50,0,0,0,2.4-16.46,50,50,0,0,0-2.4-16.45,22.92,22.92,0,0,0-6.9-10.52,16.73,16.73,0,0,0-10.9-3.66,17.07,17.07,0,0,0-11,3.66,23.08,23.08,0,0,0-7.07,10.52A48.36,48.36,0,0,0,1374.18,140Z" transform="translate(-11.11 -19.52)"/><path class="cls-2" d="M1537.31,207q-20.7,0-35.64-8a54.78,54.78,0,0,1-23-22.89q-8-14.94-8-35.81,0-20,8.08-35a57.71,57.71,0,0,1,22.81-23.31q14.73-8.34,34.76-8.34a73.62,73.62,0,0,1,26.51,4.55,55.81,55.81,0,0,1,20.28,13.17,58.44,58.44,0,0,1,13,20.92A79.36,79.36,0,0,1,1600.6,140v10.78H1485.13V125.23h72.72a18.29,18.29,0,0,0-2.82-9.8,19,19,0,0,0-7.33-6.65,22,22,0,0,0-10.39-2.4,22.46,22.46,0,0,0-10.35,2.4,19.54,19.54,0,0,0-7.53,6.6,18.2,18.2,0,0,0-3,9.85v27.61a23.22,23.22,0,0,0,2.61,11.11,19,19,0,0,0,7.49,7.66,23.46,23.46,0,0,0,11.78,2.77,27.57,27.57,0,0,0,8.79-1.34,19.36,19.36,0,0,0,6.86-3.92,15.4,15.4,0,0,0,4.21-6.18h42.42a48.09,48.09,0,0,1-10.35,23.35,53.31,53.31,0,0,1-21.59,15.32Q1555.24,207,1537.31,207Z" transform="translate(-11.11 -19.52)"/><path class="cls-2" d="M1659,32.32V204.68h-46.45V32.32Z" transform="translate(-11.11 -19.52)"/><path class="cls-2" d="M1722.18,32.32V204.68h-46.46V32.32Z" transform="translate(-11.11 -19.52)"/><path class="cls-2" d="M1800.81,207q-20.7,0-35.64-8a54.78,54.78,0,0,1-23-22.89q-8-14.94-8-35.81,0-20,8.08-35A57.62,57.62,0,0,1,1765,82.06q14.73-8.34,34.76-8.34a73.62,73.62,0,0,1,26.51,4.55,55.93,55.93,0,0,1,20.29,13.17,58.58,58.58,0,0,1,13,20.92A79.36,79.36,0,0,1,1864.1,140v10.78H1748.63V125.23h72.72a18.29,18.29,0,0,0-2.82-9.8,19.08,19.08,0,0,0-7.32-6.65,22.12,22.12,0,0,0-10.4-2.4,22.46,22.46,0,0,0-10.35,2.4,19.61,19.61,0,0,0-7.53,6.6,18.29,18.29,0,0,0-3,9.85v27.61a23.22,23.22,0,0,0,2.61,11.11,19,19,0,0,0,7.49,7.66,23.46,23.46,0,0,0,11.78,2.77,27.67,27.67,0,0,0,8.8-1.34,19.54,19.54,0,0,0,6.86-3.92,15.38,15.38,0,0,0,4.2-6.18h42.42a48.09,48.09,0,0,1-10.35,23.35,53.24,53.24,0,0,1-21.59,15.32Q1818.74,207,1800.81,207Z" transform="translate(-11.11 -19.52)"/><path class="cls-2" d="M1901.33,207.37a22.9,22.9,0,0,1-16.71-6.86,22.28,22.28,0,0,1-6.86-16.7,21.85,21.85,0,0,1,6.86-16.41,23.45,23.45,0,0,1,33.07,0,22.17,22.17,0,0,1,7.2,16.41,22.68,22.68,0,0,1-3.41,11.91,25.39,25.39,0,0,1-8.62,8.5A22.19,22.19,0,0,1,1901.33,207.37Z" transform="translate(-11.11 -19.52)"/></g></g><path class="cls-2" d="M1343.09,254.68h534v23h-534Z" transform="translate(-11.11 -19.52)"/></g></g></svg>